999
dxfrw 0.6.3
  0
SECTION
  2
HEADER
  9
$ACADVER
  1
AC1021
  9
$DWGCODEPAGE
  3
ANSI_1252
  9
$INSBASE
 10
0
 20
0
 30
0
  9
$EXTMIN
 10
-4.718447854656915e-16
 20
-311.0168644622756
 30
0
  9
$EXTMAX
 10
386
 20
218
 30
0
  9
$LIMMIN
 10
0
 20
0
  9
$LIMMAX
 10
420
 20
297
  9
$ORTHOMODE
 70
    0
  9
$REGENMODE
 70
    1
  9
$FILLMODE
 70
    1
  9
$QTEXTMODE
 70
    0
  9
$MIRRTEXT
 70
    0
  9
$LTSCALE
 40
1
  9
$ATTMODE
 70
    0
  9
$TEXTSIZE
 40
2.5
  9
$TRACEWID
 40
15.68
  9
$TEXTSTYLE
  7
STANDARD
  9
$CLAYER
  8
structural
  9
$CELTYPE
  6
BYLAYER
  9
$CECOLOR
 62
  256
  9
$CELTSCALE
 40
1
  9
$DISPSILH
 70
    0
  9
$DIMSCALE
 40
1
  9
$DIMASZ
 40
2.5
  9
$DIMEXO
 40
0.625
  9
$DIMDLI
 40
3.75
  9
$DIMRND
 40
0
  9
$DIMDLE
 40
0
  9
$DIMEXE
 40
1.25
  9
$DIMTP
 40
0
  9
$DIMTM
 40
0
  9
$DIMTXT
 40
2.5
  9
$DIMCEN
 40
2.5
  9
$DIMTSZ
 40
0
  9
$DIMTOL
 70
    0
  9
$DIMLIM
 70
    0
  9
$DIMTIH
 70
    0
  9
$DIMTOH
 70
    0
  9
$DIMSE1
 70
    0
  9
$DIMSE2
 70
    0
  9
$DIMTAD
 70
    1
  9
$DIMZIN
 70
    8
  9
$DIMBLK
  1

  9
$DIMASO
 70
    1
  9
$DIMSHO
 70
    1
  9
$DIMPOST
  1

  9
$DIMAPOST
  1

  9
$DIMALT
 70
    0
  9
$DIMALTD
 70
    3
  9
$DIMALTF
 40
0.03937
  9
$DIMLFAC
 40
1
  9
$DIMTOFL
 70
    1
  9
$DIMTVP
 40
0
  9
$DIMTIX
 70
    0
  9
$DIMSOXD
 70
    0
  9
$DIMSAH
 70
    0
  9
$DIMBLK1
  1

  9
$DIMBLK2
  1

  9
$DIMSTYLE
  2
STANDARD
  9
$DIMCLRD
 70
    0
  9
$DIMCLRE
 70
    0
  9
$DIMCLRT
 70
    0
  9
$DIMTFAC
 40
1
  9
$DIMGAP
 40
0.625
  9
$DIMJUST
 70
    0
  9
$DIMSD1
 70
    0
  9
$DIMSD2
 70
    0
  9
$DIMTOLJ
 70
    0
  9
$DIMTZIN
 70
    8
  9
$DIMALTZ
 70
    0
  9
$DIMALTTZ
 70
    0
  9
$DIMUPT
 70
    0
  9
$DIMDEC
 70
    2
  9
$DIMTDEC
 70
    2
  9
$DIMALTU
 70
    2
  9
$DIMALTTD
 70
    3
  9
$DIMTXSTY
  7
standard
  9
$DIMAUNIT
 70
    0
  9
$DIMADEC
 70
    0
  9
$DIMALTRND
 40
0
  9
$DIMAZIN
 70
    0
  9
$DIMDSEP
 70
   44
  9
$DIMATFIT
 70
    3
  9
$DIMFRAC
 70
    0
  9
$DIMLDRBLK
  1
STANDARD
  9
$DIMLUNIT
 70
    2
  9
$DIMLWD
 70
   -2
  9
$DIMLWE
 70
   -2
  9
$DIMTMOVE
 70
    0
  9
$DIMFXL
 40
1
  9
$DIMFXLON
 70
    0
  9
$DIMJOGANG
 40
0.7854
  9
$DIMTFILL
 70
    0
  9
$DIMTFILLCLR
 70
    0
  9
$DIMARCSYM
 70
    0
  9
$DIMLTYPE
  6

  9
$DIMLTEX1
  6

  9
$DIMLTEX2
  6

  9
$LUNITS
 70
    2
  9
$LUPREC
 70
    4
  9
$SKETCHINC
 40
1
  9
$FILLETRAD
 40
0
  9
$AUNITS
 70
    0
  9
$AUPREC
 70
    2
  9
$MENU
  1
.
  9
$ELEVATION
 40
0
  9
$PELEVATION
 40
0
  9
$THICKNESS
 40
0
  9
$LIMCHECK
 70
    0
  9
$CHAMFERA
 40
0
  9
$CHAMFERB
 40
0
  9
$CHAMFERC
 40
0
  9
$CHAMFERD
 40
0
  9
$SKPOLY
 70
    0
  9
$USRTIMER
 70
    1
  9
$ANGBASE
 50
0
  9
$ANGDIR
 70
    0
  9
$PDMODE
 70
   34
  9
$PDSIZE
 40
0
  9
$PLINEWID
 40
0
  9
$SPLFRAME
 70
    0
  9
$SPLINETYPE
 70
    2
  9
$SPLINESEGS
 70
    8
  9
$HANDSEED
  5
20000
  9
$SURFTAB1
 70
    6
  9
$SURFTAB2
 70
    6
  9
$SURFTYPE
 70
    6
  9
$SURFU
 70
    6
  9
$SURFV
 70
    6
  9
$UCSBASE
  2

  9
$UCSNAME
  2

  9
$UCSORG
 10
0
 20
0
 30
0
  9
$UCSXDIR
 10
1
 20
0
 30
0
  9
$UCSYDIR
 10
0
 20
1
 30
0
  9
$UCSORTHOREF
  2

  9
$UCSORTHOVIEW
 70
    0
  9
$UCSORGTOP
 10
0
 20
0
 30
0
  9
$UCSORGBOTTOM
 10
0
 20
0
 30
0
  9
$UCSORGLEFT
 10
0
 20
0
 30
0
  9
$UCSORGRIGHT
 10
0
 20
0
 30
0
  9
$UCSORGFRONT
 10
0
 20
0
 30
0
  9
$UCSORGBACK
 10
0
 20
0
 30
0
  9
$PUCSBASE
  2

  9
$PUCSNAME
  2

  9
$PUCSORG
 10
0
 20
0
 30
0
  9
$PUCSXDIR
 10
1
 20
0
 30
0
  9
$PUCSYDIR
 10
0
 20
1
 30
0
  9
$PUCSORTHOREF
  2

  9
$PUCSORTHOVIEW
 70
    0
  9
$PUCSORGTOP
 10
0
 20
0
 30
0
  9
$PUCSORGBOTTOM
 10
0
 20
0
 30
0
  9
$PUCSORGLEFT
 10
0
 20
0
 30
0
  9
$PUCSORGRIGHT
 10
0
 20
0
 30
0
  9
$PUCSORGFRONT
 10
0
 20
0
 30
0
  9
$PUCSORGBACK
 10
0
 20
0
 30
0
  9
$USERI1
 70
    0
  9
$USERI2
 70
    0
  9
$USERI3
 70
    0
  9
$USERI4
 70
    0
  9
$USERI5
 70
    0
  9
$USERR1
 40
0
  9
$USERR2
 40
0
  9
$USERR3
 40
0
  9
$USERR4
 40
0
  9
$USERR5
 40
0
  9
$WORLDVIEW
 70
    1
  9
$SHADEDGE
 70
    3
  9
$SHADEDIF
 70
   70
  9
$TILEMODE
 70
    1
  9
$MAXACTVP
 70
   64
  9
$PINSBASE
 10
0
 20
0
 30
0
  9
$PLIMCHECK
 70
    0
  9
$PEXTMIN
 10
0
 20
0
 30
0
  9
$PEXTMAX
 10
0
 20
0
 30
0
  9
$GRIDMODE
 70
    0
  9
$SNAPSTYLE
 70
    0
  9
$GRIDUNIT
 10
0
 20
0
  9
$PLIMMIN
 10
0
 20
0
  9
$PLIMMAX
 10
210
 20
297
  9
$UNITMODE
 70
    0
  9
$VISRETAIN
 70
    1
  9
$PLINEGEN
 70
    0
  9
$PSLTSCALE
 70
    1
  9
$TREEDEPTH
 70
 3020
  9
$CMLSTYLE
  2
Standard
  9
$CMLJUST
 70
    0
  9
$CMLSCALE
 40
20
  9
$PROXYGRAPHICS
 70
    1
  9
$MEASUREMENT
 70
    1
  9
$CELWEIGHT
370
   -1
  9
$ENDCAPS
280
    0
  9
$JOINSTYLE
280
    0
  9
$LWDISPLAY
290
    0
  9
$INSUNITS
 70
    4
  9
$HYPERLINKBASE
  1

  9
$STYLESHEET
  1

  9
$XEDIT
290
    1
  9
$CEPSNTYPE
380
    0
  9
$PSTYLEMODE
290
    1
  9
$EXTNAMES
290
    1
  9
$PSVPSCALE
 40
1
  9
$OLESTARTUP
290
    0
  9
$SORTENTS
280
  127
  9
$INDEXCTL
280
    0
  9
$HIDETEXT
280
    1
  9
$XCLIPFRAME
290
    0
  9
$HALOGAP
280
    0
  9
$OBSCOLOR
 70
  257
  9
$OBSLTYPE
280
    0
  9
$INTERSECTIONDISPLAY
280
    0
  9
$INTERSECTIONCOLOR
 70
  257
  9
$DIMASSOC
280
    1
  9
$PROJECTNAME
  1

  9
$CAMERADISPLAY
290
    0
  9
$LENSLENGTH
 40
50
  9
$CAMERAHEIGHT
 40
0
  9
$STEPSPERSEC
 40
2
  9
$STEPSIZE
 40
50
  9
$3DDWFPREC
 40
2
  9
$PSOLWIDTH
 40
5
  9
$PSOLHEIGHT
 40
80
  9
$LOFTANG1
 40
1.570796326794897
  9
$LOFTANG2
 40
1.570796326794897
  9
$LOFTMAG1
 40
0
  9
$LOFTMAG2
 40
0
  9
$LOFTPARAM
 70
    7
  9
$LOFTNORMALS
280
    1
  9
$LATITUDE
 40
1
  9
$LONGITUDE
 40
1
  9
$NORTHDIRECTION
 40
0
  9
$TIMEZONE
 70
-8000
  9
$LIGHTGLYPHDISPLAY
280
    1
  9
$TILEMODELIGHTSYNCH
280
    1
  9
$SOLIDHIST
280
    1
  9
$SHOWHIST
280
    1
  9
$DWFFRAME
280
    2
  9
$DGNFRAME
280
    0
  9
$REALWORLDSCALE
290
    1
  9
$INTERFERECOLOR
 62
    1
  9
$CSHADOW
280
    0
  9
$SHADOWPLANELOCATION
 40
0
  0
ENDSEC
  0
SECTION
  2
CLASSES
  0
ENDSEC
  0
SECTION
  2
TABLES
  0
TABLE
  2
VPORT
  5
8
330
0
100
AcDbSymbolTable
 70
    1
  0
VPORT
  5
31
330
2
100
AcDbSymbolTableRecord
100
AcDbViewportTableRecord
  2
*ACTIVE
 70
    0
 10
0
 20
0
 11
1
 21
1
 12
282.0237222421882
 22
155.2175004636636
 13
0
 23
0
 14
10
 24
10
 15
10
 25
10
 16
0
 26
0
 36
1
 17
0
 27
0
 37
0
 40
322.133762738855
 41
1.701686121919585
 42
50
 43
0
 44
0
 50
0
 51
0
 71
    0
 72
  100
 73
    1
 74
    3
 75
    0
 76
    0
 77
    0
 78
    0
281
    0
 65
    1
110
0
120
0
130
0
111
1
121
0
131
0
112
0
122
1
132
0
 79
    0
146
0
348
10020
 60
    7
 61
    5
292
1
282
    1
141
0
142
0
 63
  250
421
3358443
  0
ENDTAB
  0
TABLE
  2
LTYPE
  5
5
330
0
100
AcDbSymbolTable
 70
    4
  0
LTYPE
  5
14
330
5
100
AcDbSymbolTableRecord
100
AcDbLinetypeTableRecord
  2
ByBlock
 70
    0
  3

 72
   65
 73
    0
 40
0
  0
LTYPE
  5
15
330
5
100
AcDbSymbolTableRecord
100
AcDbLinetypeTableRecord
  2
ByLayer
 70
    0
  3

 72
   65
 73
    0
 40
0
  0
LTYPE
  5
16
330
5
100
AcDbSymbolTableRecord
100
AcDbLinetypeTableRecord
  2
Continuous
 70
    0
  3
Solid line
 72
   65
 73
    0
 40
0
  0
LTYPE
  5
32
330
5
100
AcDbSymbolTableRecord
100
AcDbLinetypeTableRecord
  2
DOT
 70
    0
  3
Dot . . . . . . . . . . . . . . . . . . . . . .
 72
   65
 73
    2
 40
6.35
 49
0
 74
    0
 49
-6.35
 74
    0
  0
LTYPE
  5
33
330
5
100
AcDbSymbolTableRecord
100
AcDbLinetypeTableRecord
  2
DOTTINY
 70
    0
  3
Dot (.15x) .....................................
 72
   65
 73
    2
 40
0.9525
 49
0
 74
    0
 49
-0.9525
 74
    0
  0
LTYPE
  5
34
330
5
100
AcDbSymbolTableRecord
100
AcDbLinetypeTableRecord
  2
DOT2
 70
    0
  3
Dot (.5x) .....................................
 72
   65
 73
    2
 40
3.175
 49
0
 74
    0
 49
-3.175
 74
    0
  0
LTYPE
  5
35
330
5
100
AcDbSymbolTableRecord
100
AcDbLinetypeTableRecord
  2
DOTX2
 70
    0
  3
Dot (2x) .  .  .  .  .  .  .  .  .  .  .  .  .
 72
   65
 73
    2
 40
12.7
 49
0
 74
    0
 49
-12.7
 74
    0
  0
LTYPE
  5
36
330
5
100
AcDbSymbolTableRecord
100
AcDbLinetypeTableRecord
  2
DASHED
 70
    0
  3
Dashed _ _ _ _ _ _ _ _ _ _ _ _ _ _ _ _ _
 72
   65
 73
    2
 40
19.05
 49
12.7
 74
    0
 49
-6.35
 74
    0
  0
LTYPE
  5
37
330
5
100
AcDbSymbolTableRecord
100
AcDbLinetypeTableRecord
  2
DASHEDTINY
 70
    0
  3
Dashed (.15x) _ _ _ _ _ _ _ _ _ _ _ _ _ _ _ _ _
 72
   65
 73
    2
 40
2.8575
 49
1.905
 74
    0
 49
-0.9525
 74
    0
  0
LTYPE
  5
38
330
5
100
AcDbSymbolTableRecord
100
AcDbLinetypeTableRecord
  2
DASHED2
 70
    0
  3
Dashed (.5x) _ _ _ _ _ _ _ _ _ _ _ _ _ _ _ _ _
 72
   65
 73
    2
 40
9.524999999999999
 49
6.35
 74
    0
 49
-3.175
 74
    0
  0
LTYPE
  5
39
330
5
100
AcDbSymbolTableRecord
100
AcDbLinetypeTableRecord
  2
DASHEDX2
 70
    0
  3
Dashed (2x) ____  ____  ____  ____  ____  ___
 72
   65
 73
    2
 40
38.09999999999999
 49
25.4
 74
    0
 49
-12.7
 74
    0
  0
LTYPE
  5
3A
330
5
100
AcDbSymbolTableRecord
100
AcDbLinetypeTableRecord
  2
DASHDOT
 70
    0
  3
Dash dot __ . __ . __ . __ . __ . __ . __ . __
 72
   65
 73
    4
 40
25.4
 49
12.7
 74
    0
 49
-6.35
 74
    0
 49
0
 74
    0
 49
-6.35
 74
    0
  0
LTYPE
  5
3B
330
5
100
AcDbSymbolTableRecord
100
AcDbLinetypeTableRecord
  2
DASHDOTTINY
 70
    0
  3
Dash dot (.15x) _._._._._._._._._._._._._._._.
 72
   65
 73
    4
 40
3.81
 49
1.905
 74
    0
 49
-0.9525
 74
    0
 49
0
 74
    0
 49
-0.9525
 74
    0
  0
LTYPE
  5
3C
330
5
100
AcDbSymbolTableRecord
100
AcDbLinetypeTableRecord
  2
DASHDOT2
 70
    0
  3
Dash dot (.5x) _._._._._._._._._._._._._._._.
 72
   65
 73
    4
 40
12.7
 49
6.35
 74
    0
 49
-3.175
 74
    0
 49
0
 74
    0
 49
-3.175
 74
    0
  0
LTYPE
  5
3D
330
5
100
AcDbSymbolTableRecord
100
AcDbLinetypeTableRecord
  2
DASHDOTX2
 70
    0
  3
Dash dot (2x) ____  .  ____  .  ____  .  ___
 72
   65
 73
    4
 40
50.8
 49
25.4
 74
    0
 49
-12.7
 74
    0
 49
0
 74
    0
 49
-12.7
 74
    0
  0
LTYPE
  5
3E
330
5
100
AcDbSymbolTableRecord
100
AcDbLinetypeTableRecord
  2
DIVIDE
 70
    0
  3
Divide ____ . . ____ . . ____ . . ____ . . ____
 72
   65
 73
    6
 40
31.75
 49
12.7
 74
    0
 49
-6.35
 74
    0
 49
0
 74
    0
 49
-6.35
 74
    0
 49
0
 74
    0
 49
-6.35
 74
    0
  0
LTYPE
  5
3F
330
5
100
AcDbSymbolTableRecord
100
AcDbLinetypeTableRecord
  2
DIVIDETINY
 70
    0
  3
Divide (.15x) __..__..__..__..__..__..__..__.._
 72
   65
 73
    6
 40
4.7625
 49
1.905
 74
    0
 49
-0.9525
 74
    0
 49
0
 74
    0
 49
-0.9525
 74
    0
 49
0
 74
    0
 49
-0.9525
 74
    0
  0
LTYPE
  5
40
330
5
100
AcDbSymbolTableRecord
100
AcDbLinetypeTableRecord
  2
DIVIDE2
 70
    0
  3
Divide (.5x) __..__..__..__..__..__..__..__.._
 72
   65
 73
    6
 40
15.875
 49
6.35
 74
    0
 49
-3.175
 74
    0
 49
0
 74
    0
 49
-3.175
 74
    0
 49
0
 74
    0
 49
-3.175
 74
    0
  0
LTYPE
  5
41
330
5
100
AcDbSymbolTableRecord
100
AcDbLinetypeTableRecord
  2
DIVIDEX2
 70
    0
  3
Divide (2x) ________  .  .  ________  .  .  _
 72
   65
 73
    6
 40
63.5
 49
25.4
 74
    0
 49
-12.7
 74
    0
 49
0
 74
    0
 49
-12.7
 74
    0
 49
0
 74
    0
 49
-12.7
 74
    0
  0
LTYPE
  5
42
330
5
100
AcDbSymbolTableRecord
100
AcDbLinetypeTableRecord
  2
BORDER
 70
    0
  3
Border __ __ . __ __ . __ __ . __ __ . __ __ .
 72
   65
 73
    6
 40
44.45
 49
12.7
 74
    0
 49
-6.35
 74
    0
 49
12.7
 74
    0
 49
-6.35
 74
    0
 49
0
 74
    0
 49
-6.35
 74
    0
  0
LTYPE
  5
43
330
5
100
AcDbSymbolTableRecord
100
AcDbLinetypeTableRecord
  2
BORDERTINY
 70
    0
  3
Border (.15x) __.__.__.__.__.__.__.__.__.__.__.
 72
   65
 73
    6
 40
6.6675
 49
1.905
 74
    0
 49
-0.9525
 74
    0
 49
1.905
 74
    0
 49
-0.9525
 74
    0
 49
0
 74
    0
 49
-0.9525
 74
    0
  0
LTYPE
  5
44
330
5
100
AcDbSymbolTableRecord
100
AcDbLinetypeTableRecord
  2
BORDER2
 70
    0
  3
Border (.5x) __.__.__.__.__.__.__.__.__.__.__.
 72
   65
 73
    6
 40
22.225
 49
6.35
 74
    0
 49
-3.175
 74
    0
 49
6.35
 74
    0
 49
-3.175
 74
    0
 49
0
 74
    0
 49
-3.175
 74
    0
  0
LTYPE
  5
45
330
5
100
AcDbSymbolTableRecord
100
AcDbLinetypeTableRecord
  2
BORDERX2
 70
    0
  3
Border (2x) ____  ____  .  ____  ____  .  ___
 72
   65
 73
    6
 40
88.89999999999999
 49
25.4
 74
    0
 49
-12.7
 74
    0
 49
25.4
 74
    0
 49
-12.7
 74
    0
 49
0
 74
    0
 49
-12.7
 74
    0
  0
LTYPE
  5
46
330
5
100
AcDbSymbolTableRecord
100
AcDbLinetypeTableRecord
  2
CENTER
 70
    0
  3
Center ____ _ ____ _ ____ _ ____ _ ____ _ ____
 72
   65
 73
    4
 40
50.8
 49
31.75
 74
    0
 49
-6.35
 74
    0
 49
6.35
 74
    0
 49
-6.35
 74
    0
  0
LTYPE
  5
47
330
5
100
AcDbSymbolTableRecord
100
AcDbLinetypeTableRecord
  2
CENTERTINY
 70
    0
  3
Center (.15x) ___ _ ___ _ ___ _ ___ _ ___ _ ___
 72
   65
 73
    4
 40
7.62
 49
4.7625
 74
    0
 49
-0.9525
 74
    0
 49
0.9525
 74
    0
 49
-0.9525
 74
    0
  0
LTYPE
  5
48
330
5
100
AcDbSymbolTableRecord
100
AcDbLinetypeTableRecord
  2
CENTER2
 70
    0
  3
Center (.5x) ___ _ ___ _ ___ _ ___ _ ___ _ ___
 72
   65
 73
    4
 40
28.575
 49
19.05
 74
    0
 49
-3.175
 74
    0
 49
3.175
 74
    0
 49
-3.175
 74
    0
  0
LTYPE
  5
49
330
5
100
AcDbSymbolTableRecord
100
AcDbLinetypeTableRecord
  2
CENTERX2
 70
    0
  3
Center (2x) ________  __  ________  __  _____
 72
   65
 73
    4
 40
101.6
 49
63.5
 74
    0
 49
-12.7
 74
    0
 49
12.7
 74
    0
 49
-12.7
 74
    0
  0
ENDTAB
  0
TABLE
  2
LAYER
  5
2
330
0
100
AcDbSymbolTable
 70
    1
  0
LAYER
  5
10
330
2
100
AcDbSymbolTableRecord
100
AcDbLayerTableRecord
  2
0
 70
    0
 62
    7
  6
CONTINUOUS
370
    0
390
F
  0
LAYER
  5
4A
330
2
100
AcDbSymbolTableRecord
100
AcDbLayerTableRecord
  2
axe
 70
    0
 62
    3
  6
CONTINUOUS
370
    0
390
F
  0
LAYER
  5
4B
330
2
100
AcDbSymbolTableRecord
100
AcDbLayerTableRecord
  2
center
 70
    1
 62
    1
  6
DASHDOT2
370
   13
390
F
  0
LAYER
  5
4C
330
2
100
AcDbSymbolTableRecord
100
AcDbLayerTableRecord
  2
construction
 70
    1
 62
    3
  6
CONTINUOUS
370
    0
390
F
  0
LAYER
  5
4D
330
2
100
AcDbSymbolTableRecord
100
AcDbLayerTableRecord
  2
cotes
 70
    1
 62
    7
  6
CONTINUOUS
370
    9
390
F
  0
LAYER
  5
4E
330
2
100
AcDbSymbolTableRecord
100
AcDbLayerTableRecord
  2
cut
 70
    1
 62
    7
  6
CONTINUOUS
370
   25
390
F
  0
LAYER
  5
4F
330
2
100
AcDbSymbolTableRecord
100
AcDbLayerTableRecord
  2
dimension
 70
    1
 62
    6
  6
CONTINUOUS
370
   -3
390
F
  0
LAYER
  5
50
330
2
100
AcDbSymbolTableRecord
100
AcDbLayerTableRecord
  2
filet
 70
    0
 62
    7
  6
CONTINUOUS
370
    5
390
F
  0
LAYER
  5
51
330
2
100
AcDbSymbolTableRecord
100
AcDbLayerTableRecord
  2
hash
 70
    1
 62
    7
  6
CONTINUOUS
370
    5
390
F
  0
LAYER
  5
52
330
2
100
AcDbSymbolTableRecord
100
AcDbLayerTableRecord
  2
hidden
 70
    0
 62
    7
  6
DOTTINY
370
    0
390
F
  0
LAYER
  5
53
330
2
100
AcDbSymbolTableRecord
100
AcDbLayerTableRecord
  2
structural
 70
    0
 62
    7
  6
CONTINUOUS
370
   13
390
F
  0
ENDTAB
  0
TABLE
  2
STYLE
  5
3
330
0
100
AcDbSymbolTable
 70
    3
  0
STYLE
  5
54
330
2
100
AcDbSymbolTableRecord
100
AcDbTextStyleTableRecord
  2
standard
 70
    0
 40
0
 41
1
 50
0
 71
    0
 42
1
  3
standard
  4

  0
ENDTAB
  0
TABLE
  2
VIEW
  5
6
330
0
100
AcDbSymbolTable
 70
    0
  0
ENDTAB
  0
TABLE
  2
UCS
  5
7
330
0
100
AcDbSymbolTable
 70
    0
  0
ENDTAB
  0
TABLE
  2
APPID
  5
9
330
0
100
AcDbSymbolTable
 70
    1
  0
APPID
  5
12
330
9
100
AcDbSymbolTableRecord
100
AcDbRegAppTableRecord
  2
ACAD
 70
    0
  0
APPID
  5
55
330
9
100
AcDbSymbolTableRecord
100
AcDbRegAppTableRecord
  2
LibreCad
 70
    0
  0
ENDTAB
  0
TABLE
  2
DIMSTYLE
  5
A
330
0
100
AcDbSymbolTable
 70
    1
100
AcDbDimStyleTable
 71
    1
  0
DIMSTYLE
105
56
330
A
100
AcDbSymbolTableRecord
100
AcDbDimStyleTableRecord
  2
Standard
 70
    0
 40
1
 41
2.5
 42
0.625
 43
0.38
 44
1.25
 45
0
 46
0
 47
0
 48
0
 49
1
140
2.5
141
0.09
142
0
143
25.4
144
1
145
0
146
1
147
0.625
148
0
 71
    0
 72
    0
 73
    0
 74
    1
 75
    0
 76
    0
 77
    0
 78
    8
 79
    0
170
    0
171
    2
172
    0
173
    0
174
    0
175
    0
176
    0
177
    0
178
    0
179
    0
271
    2
272
    4
273
    2
274
    2
275
    0
276
    0
277
    2
278
   44
279
    0
280
    0
281
    0
282
    0
283
    1
284
    0
285
    0
286
    0
288
    0
289
    3
340
standard
341

371
   -2
372
   -2
  0
ENDTAB
  0
TABLE
  2
BLOCK_RECORD
  5
1
330
0
100
AcDbSymbolTable
 70
    2
  0
BLOCK_RECORD
  5
1F
330
1
100
AcDbSymbolTableRecord
100
AcDbBlockTableRecord
  2
*Model_Space
 70
    0
280
    1
281
    0
  0
BLOCK_RECORD
  5
1E
330
1
100
AcDbSymbolTableRecord
100
AcDbBlockTableRecord
  2
*Paper_Space
 70
    0
280
    1
281
    0
  0
BLOCK_RECORD
  5
57
330
1
100
AcDbSymbolTableRecord
100
AcDbBlockTableRecord
  2
*D10
 70
    0
280
    1
281
    0
  0
BLOCK_RECORD
  5
5A
330
1
100
AcDbSymbolTableRecord
100
AcDbBlockTableRecord
  2
*D3
 70
    0
280
    1
281
    0
  0
BLOCK_RECORD
  5
5D
330
1
100
AcDbSymbolTableRecord
100
AcDbBlockTableRecord
  2
*D7
 70
    0
280
    1
281
    0
  0
BLOCK_RECORD
  5
60
330
1
100
AcDbSymbolTableRecord
100
AcDbBlockTableRecord
  2
*D6
 70
    0
280
    1
281
    0
  0
BLOCK_RECORD
  5
63
330
1
100
AcDbSymbolTableRecord
100
AcDbBlockTableRecord
  2
*D2
 70
    0
280
    1
281
    0
  0
BLOCK_RECORD
  5
66
330
1
100
AcDbSymbolTableRecord
100
AcDbBlockTableRecord
  2
*D9
 70
    0
280
    1
281
    0
  0
BLOCK_RECORD
  5
69
330
1
100
AcDbSymbolTableRecord
100
AcDbBlockTableRecord
  2
*D1
 70
    0
280
    1
281
    0
  0
BLOCK_RECORD
  5
6C
330
1
100
AcDbSymbolTableRecord
100
AcDbBlockTableRecord
  2
*D8
 70
    0
280
    1
281
    0
  0
BLOCK_RECORD
  5
6F
330
1
100
AcDbSymbolTableRecord
100
AcDbBlockTableRecord
  2
*D4
 70
    0
280
    1
281
    0
  0
BLOCK_RECORD
  5
72
330
1
100
AcDbSymbolTableRecord
100
AcDbBlockTableRecord
  2
*D5
 70
    0
280
    1
281
    0
  0
BLOCK_RECORD
  5
75
330
1
100
AcDbSymbolTableRecord
100
AcDbBlockTableRecord
  2
hovairGaletTriangle
 70
    0
280
    1
281
    0
  0
BLOCK_RECORD
  5
78
330
1
100
AcDbSymbolTableRecord
100
AcDbBlockTableRecord
  2
hovairGaletAxe
 70
    0
280
    1
281
    0
  0
ENDTAB
  0
ENDSEC
  0
SECTION
  2
BLOCKS
  0
BLOCK
  5
20
330
1F
100
AcDbEntity
  8
0
100
AcDbBlockBegin
  2
*Model_Space
 70
    0
 10
0
 20
0
 30
0
  3
*Model_Space
  1

  0
ENDBLK
  5
21
330
1F
100
AcDbEntity
  8
0
100
AcDbBlockEnd
  0
BLOCK
  5
1C
330
1B
100
AcDbEntity
  8
0
100
AcDbBlockBegin
  2
*Paper_Space
 70
    0
 10
0
 20
0
 30
0
  3
*Paper_Space
  1

  0
ENDBLK
  5
1D
330
1F
100
AcDbEntity
  8
0
100
AcDbBlockEnd
  0
BLOCK
  5
58
330
57
100
AcDbEntity
  8
0
100
AcDbBlockBegin
  2
*D10
 70
    1
 10
0
 20
0
  3
*D10
  1

  0
LINE
  5
7B
100
AcDbEntity
  8
cotes
  6
ByBlock
 62
    0
370
   -2
100
AcDbLine
 10
386
 20
245.210225612373
 11
365
 21
245.210225612373
  0
MTEXT
  5
7C
100
AcDbEntity
  8
cotes
  6
CONTINUOUS
 62
    0
370
   -2
100
AcDbMText
 10
375.5
 20
247.085225612373
 30
0
 40
2.5
 41
2.5
 71
    5
 72
    1
  1
21
  7
standard
210
0
220
0
230
1
 50
0
 73
    2
 44
1
  0
SOLID
  5
7D
100
AcDbEntity
  8
cotes
  6
ByBlock
 62
    0
370
   -2
100
AcDbTrace
 10
386
 20
245.210225612373
 30
0
 11
383.5
 21
244.7939409546001
 31
0
 12
383.5
 22
245.6265102701458
 32
0
 13
383.5
 23
245.6265102701458
 33
0
  0
SOLID
  5
7E
100
AcDbEntity
  8
cotes
  6
ByBlock
 62
    0
370
   -2
100
AcDbTrace
 10
365
 20
245.210225612373
 30
0
 11
367.5
 21
245.6265102701458
 31
0
 12
367.5
 22
244.7939409546001
 32
0
 13
367.5
 23
244.7939409546001
 33
0
  0
LINE
  5
7F
100
AcDbEntity
  8
cotes
  6
ByBlock
 62
    0
370
   -2
100
AcDbLine
 10
386
 20
215.625
 11
386
 21
246.460225612373
  0
LINE
  5
80
100
AcDbEntity
  8
cotes
  6
ByBlock
 62
    0
370
   -2
100
AcDbLine
 10
365
 20
193.625
 11
365
 21
246.460225612373
  0
ENDBLK
  5
59
330
57
100
AcDbEntity
  8
0
100
AcDbBlockEnd
  0
BLOCK
  5
5B
330
5A
100
AcDbEntity
  8
0
100
AcDbBlockBegin
  2
*D3
 70
    1
 10
0
 20
0
  3
*D3
  1

  0
LINE
  5
81
100
AcDbEntity
  8
cotes
  6
ByBlock
 62
    0
370
   -2
100
AcDbLine
 10
422.25714520467
 20
145
 11
422.25714520467
 21
215
  0
MTEXT
  5
82
100
AcDbEntity
  8
cotes
  6
CONTINUOUS
 62
    0
370
   -2
100
AcDbMText
 10
420.38214520467
 20
180
 30
0
 40
2.5
 41
3.055555555555556
 71
    5
 72
    1
  1
70
  7
standard
210
0
220
0
230
1
 50
90
 73
    2
 44
1
  0
SOLID
  5
83
100
AcDbEntity
  8
cotes
  6
ByBlock
 62
    0
370
   -2
100
AcDbTrace
 10
422.25714520467
 20
145
 30
0
 11
421.8408605468971
 21
147.5
 31
0
 12
422.6734298624428
 22
147.5
 32
0
 13
422.6734298624428
 23
147.5
 33
0
  0
SOLID
  5
84
100
AcDbEntity
  8
cotes
  6
ByBlock
 62
    0
370
   -2
100
AcDbTrace
 10
422.25714520467
 20
215
 30
0
 11
422.6734298624428
 21
212.5
 31
0
 12
421.8408605468971
 22
212.5
 32
0
 13
421.8408605468971
 23
212.5
 33
0
  0
LINE
  5
85
100
AcDbEntity
  8
cotes
  6
ByBlock
 62
    0
370
   -2
100
AcDbLine
 10
386.625
 20
145
 11
423.50714520467
 21
145
  0
LINE
  5
86
100
AcDbEntity
  8
cotes
  6
ByBlock
 62
    0
370
   -2
100
AcDbLine
 10
386.625
 20
215
 11
423.50714520467
 21
215
  0
ENDBLK
  5
5C
330
5A
100
AcDbEntity
  8
0
100
AcDbBlockEnd
  0
BLOCK
  5
5E
330
5D
100
AcDbEntity
  8
0
100
AcDbBlockBegin
  2
*D7
 70
    1
 10
0
 20
0
  3
*D7
  1

  0
LINE
  5
87
100
AcDbEntity
  8
cotes
  6
ByBlock
 62
    0
370
   -2
100
AcDbLine
 10
391
 20
229.2344403240573
 11
376
 21
229.2344403240573
  0
MTEXT
  5
88
100
AcDbEntity
  8
cotes
  6
CONTINUOUS
 62
    0
370
   -2
100
AcDbMText
 10
383.5
 20
231.1094403240573
 30
0
 40
2.5
 41
1.111111111111266
 71
    5
 72
    1
  1
5
  7
standard
210
0
220
0
230
1
 50
0
 73
    2
 44
1
  0
SOLID
  5
89
100
AcDbEntity
  8
cotes
  6
ByBlock
 62
    0
370
   -2
100
AcDbTrace
 10
386
 20
229.2344403240573
 30
0
 11
388.5
 21
229.6507249818301
 31
0
 12
388.5
 22
228.8181556662844
 32
0
 13
388.5
 23
228.8181556662844
 33
0
  0
SOLID
  5
8A
100
AcDbEntity
  8
cotes
  6
ByBlock
 62
    0
370
   -2
100
AcDbTrace
 10
381
 20
229.2344403240573
 30
0
 11
378.5
 21
228.8181556662844
 31
0
 12
378.5
 22
229.6507249818301
 32
0
 13
378.5
 23
229.6507249818301
 33
0
  0
LINE
  5
8B
100
AcDbEntity
  8
cotes
  6
ByBlock
 62
    0
370
   -2
100
AcDbLine
 10
386
 20
215.625
 11
386
 21
230.4844403240573
  0
LINE
  5
8C
100
AcDbEntity
  8
cotes
  6
ByBlock
 62
    0
370
   -2
100
AcDbLine
 10
381
 20
215.625
 11
381
 21
230.4844403240573
  0
ENDBLK
  5
5F
330
5D
100
AcDbEntity
  8
0
100
AcDbBlockEnd
  0
BLOCK
  5
61
330
60
100
AcDbEntity
  8
0
100
AcDbBlockBegin
  2
*D6
 70
    1
 10
0
 20
0
  3
*D6
  1

  0
LINE
  5
8D
100
AcDbEntity
  8
cotes
  6
ByBlock
 62
    0
370
   -2
100
AcDbLine
 10
386
 20
100.2219013449566
 11
331
 21
100.2219013449566
  0
MTEXT
  5
8E
100
AcDbEntity
  8
cotes
  6
CONTINUOUS
 62
    0
370
   -2
100
AcDbMText
 10
358.5
 20
102.0969013449566
 30
0
 40
2.5
 41
3.055555555555866
 71
    5
 72
    1
  1
55
  7
standard
210
0
220
0
230
1
 50
0
 73
    2
 44
1
  0
SOLID
  5
8F
100
AcDbEntity
  8
cotes
  6
ByBlock
 62
    0
370
   -2
100
AcDbTrace
 10
386
 20
100.2219013449566
 30
0
 11
383.5
 21
99.80561668718376
 31
0
 12
383.5
 22
100.6381860027294
 32
0
 13
383.5
 23
100.6381860027294
 33
0
  0
SOLID
  5
90
100
AcDbEntity
  8
cotes
  6
ByBlock
 62
    0
370
   -2
100
AcDbTrace
 10
331
 20
100.2219013449566
 30
0
 11
333.5
 21
100.6381860027294
 31
0
 12
333.5
 22
99.80561668718377
 32
0
 13
333.5
 23
99.80561668718377
 33
0
  0
LINE
  5
91
100
AcDbEntity
  8
cotes
  6
ByBlock
 62
    0
370
   -2
100
AcDbLine
 10
386
 20
144.375
 11
386
 21
98.97190134495659
  0
LINE
  5
92
100
AcDbEntity
  8
cotes
  6
ByBlock
 62
    0
370
   -2
100
AcDbLine
 10
331
 20
175.375
 11
331
 21
98.97190134495661
  0
ENDBLK
  5
62
330
60
100
AcDbEntity
  8
0
100
AcDbBlockEnd
  0
BLOCK
  5
64
330
63
100
AcDbEntity
  8
0
100
AcDbBlockBegin
  2
*D2
 70
    1
 10
0
 20
0
  3
*D2
  1

  0
LINE
  5
93
100
AcDbEntity
  8
cotes
  6
ByBlock
 62
    0
370
   -2
100
AcDbLine
 10
204.0409393280914
 20
-1.016140477337842
 11
217.0409393280914
 21
-1.016140477337842
  0
MTEXT
  5
94
100
AcDbEntity
  8
cotes
  6
CONTINUOUS
 62
    0
370
   -2
100
AcDbMText
 10
210.5409393280914
 20
0.858859522662158
 30
0
 40
2.5
 41
2.500000000000155
 71
    5
 72
    1
  1
13
  7
standard
210
0
220
0
230
1
 50
0
 73
    2
 44
1
  0
SOLID
  5
95
100
AcDbEntity
  8
cotes
  6
ByBlock
 62
    0
370
   -2
100
AcDbTrace
 10
204.0409393280914
 20
-1.016140477337842
 30
0
 11
206.5409393280914
 21
-0.5998558195650018
 31
0
 12
206.5409393280914
 22
-1.432425135110683
 32
0
 13
206.5409393280914
 23
-1.432425135110683
 33
0
  0
SOLID
  5
96
100
AcDbEntity
  8
cotes
  6
ByBlock
 62
    0
370
   -2
100
AcDbTrace
 10
217.0409393280914
 20
-1.016140477337842
 30
0
 11
214.5409393280914
 21
-1.432425135110682
 31
0
 12
214.5409393280914
 22
-0.5998558195650016
 32
0
 13
214.5409393280914
 23
-0.5998558195650016
 33
0
  0
LINE
  5
97
100
AcDbEntity
  8
cotes
  6
ByBlock
 62
    0
370
   -2
100
AcDbLine
 10
204.0409393280914
 20
-30.39186446227563
 11
204.0409393280914
 21
0.233859522662158
  0
LINE
  5
98
100
AcDbEntity
  8
cotes
  6
ByBlock
 62
    0
370
   -2
100
AcDbLine
 10
217.0409393280914
 20
-30.39186446227563
 11
217.0409393280914
 21
0.233859522662158
  0
ENDBLK
  5
65
330
63
100
AcDbEntity
  8
0
100
AcDbBlockEnd
  0
BLOCK
  5
67
330
66
100
AcDbEntity
  8
0
100
AcDbBlockBegin
  2
*D9
 70
    1
 10
0
 20
0
  3
*D9
  1

  0
LINE
  5
99
100
AcDbEntity
  8
cotes
  6
ByBlock
 62
    0
370
   -2
100
AcDbLine
 10
365
 20
245.1882621951635
 11
317
 21
245.1882621951635
  0
MTEXT
  5
9A
100
AcDbEntity
  8
cotes
  6
CONTINUOUS
 62
    0
370
   -2
100
AcDbMText
 10
341
 20
247.0632621951635
 30
0
 40
2.5
 41
3.333333333333333
 71
    5
 72
    1
  1
48
  7
standard
210
0
220
0
230
1
 50
0
 73
    2
 44
1
  0
SOLID
  5
9B
100
AcDbEntity
  8
cotes
  6
ByBlock
 62
    0
370
   -2
100
AcDbTrace
 10
365
 20
245.1882621951635
 30
0
 11
362.5
 21
244.7719775373907
 31
0
 12
362.5
 22
245.6045468529364
 32
0
 13
362.5
 23
245.6045468529364
 33
0
  0
SOLID
  5
9C
100
AcDbEntity
  8
cotes
  6
ByBlock
 62
    0
370
   -2
100
AcDbTrace
 10
317
 20
245.1882621951635
 30
0
 11
319.5
 21
245.6045468529364
 31
0
 12
319.5
 22
244.7719775373907
 32
0
 13
319.5
 23
244.7719775373907
 33
0
  0
LINE
  5
9D
100
AcDbEntity
  8
cotes
  6
ByBlock
 62
    0
370
   -2
100
AcDbLine
 10
365
 20
193.625
 11
365
 21
246.4382621951635
  0
LINE
  5
9E
100
AcDbEntity
  8
cotes
  6
ByBlock
 62
    0
370
   -2
100
AcDbLine
 10
317
 20
193.625
 11
317
 21
246.4382621951635
  0
ENDBLK
  5
68
330
66
100
AcDbEntity
  8
0
100
AcDbBlockEnd
  0
BLOCK
  5
6A
330
69
100
AcDbEntity
  8
0
100
AcDbBlockBegin
  2
*D1
 70
    1
 10
0
 20
0
  3
*D1
  1

  0
LINE
  5
9F
100
AcDbEntity
  8
cotes
  6
ByBlock
 62
    0
370
   -2
100
AcDbLine
 10
204.0409393280914
 20
-331.0168644622756
 11
229.0409393280914
 21
-331.0168644622756
  0
MTEXT
  5
A0
100
AcDbEntity
  8
cotes
  6
CONTINUOUS
 62
    0
370
   -2
100
AcDbMText
 10
216.5409393280914
 20
-329.1418644622756
 30
0
 40
2.5
 41
3.055555555555711
 71
    5
 72
    1
  1
25
  7
standard
210
0
220
0
230
1
 50
0
 73
    2
 44
1
  0
SOLID
  5
A1
100
AcDbEntity
  8
cotes
  6
ByBlock
 62
    0
370
   -2
100
AcDbTrace
 10
204.0409393280914
 20
-331.0168644622756
 30
0
 11
206.5409393280914
 21
-330.6005798045027
 31
0
 12
206.5409393280914
 22
-331.4331491200484
 32
0
 13
206.5409393280914
 23
-331.4331491200484
 33
0
  0
SOLID
  5
A2
100
AcDbEntity
  8
cotes
  6
ByBlock
 62
    0
370
   -2
100
AcDbTrace
 10
229.0409393280914
 20
-331.0168644622756
 30
0
 11
226.5409393280914
 21
-331.4331491200484
 31
0
 12
226.5409393280914
 22
-330.6005798045027
 32
0
 13
226.5409393280914
 23
-330.6005798045027
 33
0
  0
LINE
  5
A3
100
AcDbEntity
  8
cotes
  6
ByBlock
 62
    0
370
   -2
100
AcDbLine
 10
204.0409393280914
 20
-276.6418644622756
 11
204.0409393280914
 21
-332.2668644622756
  0
LINE
  5
A4
100
AcDbEntity
  8
cotes
  6
ByBlock
 62
    0
370
   -2
100
AcDbLine
 10
229.0409393280914
 20
-276.6418644622756
 11
229.0409393280914
 21
-332.2668644622756
  0
ENDBLK
  5
6B
330
69
100
AcDbEntity
  8
0
100
AcDbBlockEnd
  0
BLOCK
  5
6D
330
6C
100
AcDbEntity
  8
0
100
AcDbBlockBegin
  2
*D8
 70
    1
 10
0
 20
0
  3
*D8
  1

  0
LINE
  5
A5
100
AcDbEntity
  8
cotes
  6
ByBlock
 62
    0
370
   -2
100
AcDbLine
 10
386
 20
258.5696505227502
 11
301
 21
258.5696505227502
  0
MTEXT
  5
A6
100
AcDbEntity
  8
cotes
  6
CONTINUOUS
 62
    0
370
   -2
100
AcDbMText
 10
343.5
 20
260.4446505227502
 30
0
 40
2.5
 41
3.055555555555711
 71
    5
 72
    1
  1
85
  7
standard
210
0
220
0
230
1
 50
0
 73
    2
 44
1
  0
SOLID
  5
A7
100
AcDbEntity
  8
cotes
  6
ByBlock
 62
    0
370
   -2
100
AcDbTrace
 10
386
 20
258.5696505227502
 30
0
 11
383.5
 21
258.1533658649773
 31
0
 12
383.5
 22
258.985935180523
 32
0
 13
383.5
 23
258.985935180523
 33
0
  0
SOLID
  5
A8
100
AcDbEntity
  8
cotes
  6
ByBlock
 62
    0
370
   -2
100
AcDbTrace
 10
301
 20
258.5696505227502
 30
0
 11
303.5
 21
258.985935180523
 31
0
 12
303.5
 22
258.1533658649773
 32
0
 13
303.5
 23
258.1533658649773
 33
0
  0
LINE
  5
A9
100
AcDbEntity
  8
cotes
  6
ByBlock
 62
    0
370
   -2
100
AcDbLine
 10
386
 20
215.625
 11
386
 21
259.8196505227502
  0
LINE
  5
AA
100
AcDbEntity
  8
cotes
  6
ByBlock
 62
    0
370
   -2
100
AcDbLine
 10
301
 20
192.125
 11
301
 21
259.8196505227502
  0
ENDBLK
  5
6E
330
6C
100
AcDbEntity
  8
0
100
AcDbBlockEnd
  0
BLOCK
  5
70
330
6F
100
AcDbEntity
  8
0
100
AcDbBlockBegin
  2
*D4
 70
    1
 10
0
 20
0
  3
*D4
  1

  0
LINE
  5
AB
100
AcDbEntity
  8
cotes
  6
ByBlock
 62
    0
370
   -2
100
AcDbLine
 10
386
 20
134.8887074457554
 11
356
 21
134.8887074457554
  0
MTEXT
  5
AC
100
AcDbEntity
  8
cotes
  6
CONTINUOUS
 62
    0
370
   -2
100
AcDbMText
 10
371
 20
136.7637074457554
 30
0
 40
2.5
 41
3.055555555555711
 71
    5
 72
    1
  1
30
  7
standard
210
0
220
0
230
1
 50
0
 73
    2
 44
1
  0
SOLID
  5
AD
100
AcDbEntity
  8
cotes
  6
ByBlock
 62
    0
370
   -2
100
AcDbTrace
 10
386
 20
134.8887074457554
 30
0
 11
383.5
 21
134.4724227879825
 31
0
 12
383.5
 22
135.3049921035282
 32
0
 13
383.5
 23
135.3049921035282
 33
0
  0
SOLID
  5
AE
100
AcDbEntity
  8
cotes
  6
ByBlock
 62
    0
370
   -2
100
AcDbTrace
 10
356
 20
134.8887074457554
 30
0
 11
358.5
 21
135.3049921035282
 31
0
 12
358.5
 22
134.4724227879825
 32
0
 13
358.5
 23
134.4724227879825
 33
0
  0
LINE
  5
AF
100
AcDbEntity
  8
cotes
  6
ByBlock
 62
    0
370
   -2
100
AcDbLine
 10
386
 20
144.375
 11
386
 21
133.6387074457554
  0
LINE
  5
B0
100
AcDbEntity
  8
cotes
  6
ByBlock
 62
    0
370
   -2
100
AcDbLine
 10
356
 20
175.375
 11
356
 21
133.6387074457554
  0
ENDBLK
  5
71
330
6F
100
AcDbEntity
  8
0
100
AcDbBlockEnd
  0
BLOCK
  5
73
330
72
100
AcDbEntity
  8
0
100
AcDbBlockBegin
  2
*D5
 70
    1
 10
0
 20
0
  3
*D5
  1

  0
LINE
  5
B1
100
AcDbEntity
  8
cotes
  6
ByBlock
 62
    0
370
   -2
100
AcDbLine
 10
386
 20
117.555304395356
 11
341
 21
117.555304395356
  0
MTEXT
  5
B2
100
AcDbEntity
  8
cotes
  6
CONTINUOUS
 62
    0
370
   -2
100
AcDbMText
 10
363.5
 20
119.430304395356
 30
0
 40
2.5
 41
3.333333333333488
 71
    5
 72
    1
  1
45
  7
standard
210
0
220
0
230
1
 50
0
 73
    2
 44
1
  0
SOLID
  5
B3
100
AcDbEntity
  8
cotes
  6
ByBlock
 62
    0
370
   -2
100
AcDbTrace
 10
386
 20
117.555304395356
 30
0
 11
383.5
 21
117.1390197375832
 31
0
 12
383.5
 22
117.9715890531288
 32
0
 13
383.5
 23
117.9715890531288
 33
0
  0
SOLID
  5
B4
100
AcDbEntity
  8
cotes
  6
ByBlock
 62
    0
370
   -2
100
AcDbTrace
 10
341
 20
117.555304395356
 30
0
 11
343.5
 21
117.9715890531288
 31
0
 12
343.5
 22
117.1390197375832
 32
0
 13
343.5
 23
117.1390197375832
 33
0
  0
LINE
  5
B5
100
AcDbEntity
  8
cotes
  6
ByBlock
 62
    0
370
   -2
100
AcDbLine
 10
386
 20
144.375
 11
386
 21
116.305304395356
  0
LINE
  5
B6
100
AcDbEntity
  8
cotes
  6
ByBlock
 62
    0
370
   -2
100
AcDbLine
 10
341
 20
179.375
 11
341
 21
116.305304395356
  0
ENDBLK
  5
74
330
72
100
AcDbEntity
  8
0
100
AcDbBlockEnd
  0
BLOCK
  5
76
330
75
100
AcDbEntity
  8
0
100
AcDbBlockBegin
  2
hovairGaletTriangle
 70
    0
 10
0
 20
0
  3
hovairGaletTriangle
  1

  0
HATCH
  5
B7
100
AcDbEntity
  8
filet
  6
ByLayer
 62
  256
370
   -1
100
AcDbHatch
 10
0
 20
0
 30
0
210
0
220
0
230
1
  2
SOLID
 70
    1
 71
    0
 91
    1
 92
    0
 93
    3
 72
    1
 10
312
 20
35
 11
314
 21
35
 72
    1
 10
314
 20
35
 11
312
 21
33
 72
    1
 10
312
 20
33
 11
312
 21
35
 97
    0
 75
    0
 76
    1
 98
    0
  0
HATCH
  5
B8
100
AcDbEntity
  8
filet
  6
ByLayer
 62
  256
370
   -1
100
AcDbHatch
 10
0
 20
0
 30
0
210
0
220
0
230
1
  2
SOLID
 70
    1
 71
    0
 91
    1
 92
    0
 93
    3
 72
    1
 10
381
 20
35
 11
383
 21
35
 72
    1
 10
383
 20
35
 11
381
 21
33
 72
    1
 10
381
 20
33
 11
381
 21
35
 97
    0
 75
    0
 76
    1
 98
    0
  0
HATCH
  5
B9
100
AcDbEntity
  8
filet
  6
ByLayer
 62
  256
370
   -1
100
AcDbHatch
 10
0
 20
0
 30
0
210
0
220
0
230
1
  2
SOLID
 70
    1
 71
    0
 91
    1
 92
    0
 93
    3
 72
    1
 10
312
 20
87
 11
314
 21
85
 72
    1
 10
314
 20
85
 11
312
 21
85
 72
    1
 10
312
 20
85
 11
312
 21
87
 97
    0
 75
    0
 76
    1
 98
    0
  0
HATCH
  5
BA
100
AcDbEntity
  8
filet
  6
ByLayer
 62
  256
370
   -1
100
AcDbHatch
 10
0
 20
0
 30
0
210
0
220
0
230
1
  2
SOLID
 70
    1
 71
    0
 91
    1
 92
    0
 93
    3
 72
    1
 10
381
 20
87
 11
383
 21
85
 72
    1
 10
383
 20
85
 11
381
 21
85
 72
    1
 10
381
 20
85
 11
381
 21
87
 97
    0
 75
    0
 76
    1
 98
    0
  0
HATCH
  5
BB
100
AcDbEntity
  8
filet
  6
ByLayer
 62
  256
370
   -1
100
AcDbHatch
 10
0
 20
0
 30
0
210
0
220
0
230
1
  2
SOLID
 70
    1
 71
    0
 91
    1
 92
    0
 93
    3
 72
    1
 10
366
 20
33
 11
364
 21
35
 72
    1
 10
364
 20
35
 11
366
 21
35
 72
    1
 10
366
 20
35
 11
366
 21
33
 97
    0
 75
    0
 76
    1
 98
    0
  0
HATCH
  5
BC
100
AcDbEntity
  8
filet
  6
ByLayer
 62
  256
370
   -1
100
AcDbHatch
 10
0
 20
0
 30
0
210
0
220
0
230
1
  2
SOLID
 70
    1
 71
    0
 91
    1
 92
    0
 93
    3
 72
    1
 10
366
 20
87
 11
364
 21
85
 72
    1
 10
364
 20
85
 11
366
 21
85
 72
    1
 10
366
 20
85
 11
366
 21
87
 97
    0
 75
    0
 76
    1
 98
    0
  0
CIRCLE
  5
BD
100
AcDbEntity
  8
structural
  6
ByLayer
 62
  256
370
   -1
100
AcDbCircle
 10
180
 20
38
 40
12.5
  0
CIRCLE
  5
BE
100
AcDbEntity
  8
structural
  6
ByLayer
 62
  256
370
   -1
100
AcDbCircle
 10
38
 20
38
 40
12.5
  0
CIRCLE
  5
BF
100
AcDbEntity
  8
structural
  6
ByLayer
 62
  256
370
   -1
100
AcDbCircle
 10
38
 20
180
 40
12.5
  0
CIRCLE
  5
C0
100
AcDbEntity
  8
structural
  6
ByLayer
 62
  256
370
   -1
100
AcDbCircle
 10
106
 20
60
 40
25
  0
LINE
  5
C1
100
AcDbEntity
  8
structural
  6
ByLayer
 62
  256
370
   -1
100
AcDbLine
 10
180
 20
0
 11
37.99999999999999
 21
0
  0
ARC
  5
C2
100
AcDbEntity
  8
structural
  6
ByLayer
 62
  256
370
   -1
100
AcDbCircle
 10
180
 20
38
 40
38
100
AcDbArc
 50
270
 51
45.0000013086153
  0
LINE
  5
C3
100
AcDbEntity
  8
structural
  6
ByLayer
 62
  256
370
   -1
100
AcDbLine
 10
206.8700570713862
 20
64.87005829879141
 11
206.8700576850888
 21
64.8700576850888
  0
LINE
  5
C4
100
AcDbEntity
  8
structural
  6
ByLayer
 62
  256
370
   -1
100
AcDbLine
 10
0
 20
180
 11
-4.718447854656915e-16
 21
38.00000042990425
  0
LINE
  5
C5
100
AcDbEntity
  8
structural
  6
ByLayer
 62
  256
370
   -1
100
AcDbLine
 10
-4.718447854656915e-16
 20
38.00000042990425
 11
0
 21
38.00000000000001
  0
ARC
  5
C6
100
AcDbEntity
  8
structural
  6
ByLayer
 62
  256
370
   -1
100
AcDbCircle
 10
38
 20
180
 40
38
100
AcDbArc
 50
44.99999877998714
 51
180
  0
LINE
  5
C7
100
AcDbEntity
  8
structural
  6
ByLayer
 62
  256
370
   -1
100
AcDbLine
 10
64.87005768508881
 20
206.8700576850888
 11
64.87005825723941
 21
206.8700571129382
  0
LINE
  5
C8
100
AcDbEntity
  8
structural
  6
ByLayer
 62
  256
370
   -1
100
AcDbLine
 10
64.87005825723941
 20
206.8700571129382
 11
206.8700570713862
 21
64.87005829879141
  0
ARC
  5
C9
100
AcDbEntity
  8
structural
  6
ByLayer
 62
  256
370
   -1
100
AcDbCircle
 10
38
 20
38
 40
38
100
AcDbArc
 50
179.9999993517974
 51
270.0000006482026
  0
LINE
  5
CA
100
AcDbEntity
  8
center
  6
ByLayer
 62
  256
370
   -1
100
AcDbLine
 10
67.65854574883787
 20
71.39881072331849
 11
199.1707271255811
 21
32.30059463834075
  0
LINE
  5
CB
100
AcDbEntity
  8
center
  6
ByLayer
 62
  256
370
   -1
100
AcDbLine
 10
18.97110962891177
 20
31.84359429170675
 11
144.0577807421764
 21
72.3128114165865
  0
LINE
  5
CC
100
AcDbEntity
  8
center
  6
ByLayer
 62
  256
370
   -1
100
AcDbLine
 10
115.8602514396176
 20
42.59955628302775
 11
28.13974856038239
 21
197.4004437169722
  0
CIRCLE
  5
CD
100
AcDbEntity
  8
construction
  6
ByLayer
 62
  256
370
   -1
100
AcDbCircle
 10
38
 20
38
 40
25
  0
CIRCLE
  5
CE
100
AcDbEntity
  8
construction
  6
ByLayer
 62
  256
370
   -1
100
AcDbCircle
 10
180
 20
38
 40
25
  0
CIRCLE
  5
CF
100
AcDbEntity
  8
construction
  6
ByLayer
 62
  256
370
   -1
100
AcDbCircle
 10
38
 20
180
 40
25
  0
CIRCLE
  5
D0
100
AcDbEntity
  8
structural
  6
ByLayer
 62
  256
370
   -1
100
AcDbCircle
 10
61.78611296386027
 20
45.69550713536656
 40
3
  0
CIRCLE
  5
D1
100
AcDbEntity
  8
structural
  6
ByLayer
 62
  256
370
   -1
100
AcDbCircle
 10
156.0365910930237
 20
45.12425670207404
 40
3
  0
CIRCLE
  5
D2
100
AcDbEntity
  8
structural
  6
ByLayer
 62
  256
370
   -1
100
AcDbCircle
 10
50.32531429952198
 20
158.2494453537847
 40
3
  0
CIRCLE
  5
D3
100
AcDbEntity
  8
filet
  6
ByLayer
 62
  256
370
   -1
100
AcDbCircle
 10
156.0365910930237
 20
45.12425670207404
 40
2.5
  0
CIRCLE
  5
D4
100
AcDbEntity
  8
filet
  6
ByLayer
 62
  256
370
   -1
100
AcDbCircle
 10
61.78611296386027
 20
45.69550713536656
 40
2.5
  0
CIRCLE
  5
D5
100
AcDbEntity
  8
filet
  6
ByLayer
 62
  256
370
   -1
100
AcDbCircle
 10
50.32531429952198
 20
158.2494453537847
 40
2.5
  0
LINE
  5
D6
100
AcDbEntity
  8
structural
  6
ByLayer
 62
  256
370
   -1
100
AcDbLine
 10
300
 20
0
 11
300
 21
218
  0
LINE
  5
D7
100
AcDbEntity
  8
structural
  6
ByLayer
 62
  256
370
   -1
100
AcDbLine
 10
300
 20
0
 11
312
 21
-2.939055249173705e-15
  0
LINE
  5
D8
100
AcDbEntity
  8
structural
  6
ByLayer
 62
  256
370
   -1
100
AcDbLine
 10
312
 20
218
 11
300
 21
218
  0
LINE
  5
D9
100
AcDbEntity
  8
structural
  6
ByLayer
 62
  256
370
   -1
100
AcDbLine
 10
381
 20
-1.983862293192251e-14
 11
381
 21
218
  0
LINE
  5
DA
100
AcDbEntity
  8
structural
  6
ByLayer
 62
  256
370
   -1
100
AcDbLine
 10
381
 20
218
 11
366
 21
218
  0
LINE
  5
DB
100
AcDbEntity
  8
structural
  6
ByLayer
 62
  256
370
   -1
100
AcDbLine
 10
366
 20
-1.616480387045538e-14
 11
381
 21
-1.983862293192251e-14
  0
LINE
  5
DC
100
AcDbEntity
  8
center
  6
ByLayer
 62
  256
370
   -1
100
AcDbLine
 10
292
 20
60
 11
401
 21
60
  0
LINE
  5
DD
100
AcDbEntity
  8
structural
  6
ByLayer
 62
  256
370
   -1
100
AcDbLine
 10
381
 20
85
 11
384
 21
85
  0
LINE
  5
DE
100
AcDbEntity
  8
structural
  6
ByLayer
 62
  256
370
   -1
100
AcDbLine
 10
384
 20
85
 11
386
 21
83
  0
LINE
  5
DF
100
AcDbEntity
  8
structural
  6
ByLayer
 62
  256
370
   -1
100
AcDbLine
 10
381
 20
35
 11
384
 21
35
  0
LINE
  5
E0
100
AcDbEntity
  8
structural
  6
ByLayer
 62
  256
370
   -1
100
AcDbLine
 10
386
 20
37
 11
386
 21
83
  0
LINE
  5
E1
100
AcDbEntity
  8
structural
  6
ByLayer
 62
  256
370
   -1
100
AcDbLine
 10
384
 20
35
 11
386
 21
37
  0
LINE
  5
E2
100
AcDbEntity
  8
center
  6
ByLayer
 62
  256
370
   -1
100
AcDbLine
 10
23
 20
180
 11
488
 21
180
  0
LINE
  5
E3
100
AcDbEntity
  8
center
  6
ByLayer
 62
  256
370
   -1
100
AcDbLine
 10
23
 20
38
 11
488
 21
38
  0
LINE
  5
E4
100
AcDbEntity
  8
hidden
  6
ByLayer
 62
  256
370
   -1
100
AcDbLine
 10
300
 20
167.5
 11
312
 21
167.5
  0
LINE
  5
E5
100
AcDbEntity
  8
hidden
  6
ByLayer
 62
  256
370
   -1
100
AcDbLine
 10
300
 20
192.5
 11
312
 21
192.5
  0
LINE
  5
E6
100
AcDbEntity
  8
hidden
  6
ByLayer
 62
  256
370
   -1
100
AcDbLine
 10
366
 20
192.5
 11
381
 21
192.5
  0
LINE
  5
E7
100
AcDbEntity
  8
hidden
  6
ByLayer
 62
  256
370
   -1
100
AcDbLine
 10
366
 20
167.5
 11
381
 21
167.5
  0
LINE
  5
E8
100
AcDbEntity
  8
hidden
  6
ByLayer
 62
  256
370
   -1
100
AcDbLine
 10
366
 20
25.5
 11
381
 21
25.5
  0
LINE
  5
E9
100
AcDbEntity
  8
hidden
  6
ByLayer
 62
  256
370
   -1
100
AcDbLine
 10
366
 20
50.5
 11
381
 21
50.5
  0
LINE
  5
EA
100
AcDbEntity
  8
hidden
  6
ByLayer
 62
  256
370
   -1
100
AcDbLine
 10
300
 20
50.5
 11
312
 21
50.5
  0
LINE
  5
EB
100
AcDbEntity
  8
hidden
  6
ByLayer
 62
  256
370
   -1
100
AcDbLine
 10
300
 20
25.5
 11
312
 21
25.5
  0
LINE
  5
EC
100
AcDbEntity
  8
center
  6
ByLayer
 62
  256
370
   -1
100
AcDbLine
 10
35.32531429952198
 20
158.2494453537847
 11
500.325314299522
 21
158.2494453537847
  0
LINE
  5
ED
100
AcDbEntity
  8
filet
  6
ByLayer
 62
  256
370
   -1
100
AcDbLine
 10
366
 20
155.2494453537847
 11
381
 21
155.2494453537847
  0
LINE
  5
EE
100
AcDbEntity
  8
structural
  6
ByLayer
 62
  256
370
   -1
100
AcDbLine
 10
366
 20
155.7494453537847
 11
381
 21
155.7494453537847
  0
LINE
  5
EF
100
AcDbEntity
  8
structural
  6
ByLayer
 62
  256
370
   -1
100
AcDbLine
 10
366
 20
160.7494453537847
 11
381
 21
160.7494453537847
  0
LINE
  5
F0
100
AcDbEntity
  8
filet
  6
ByLayer
 62
  256
370
   -1
100
AcDbLine
 10
366
 20
161.2494453537847
 11
381
 21
161.2494453537847
  0
POINT
  5
F1
100
AcDbEntity
  8
filet
  6
ByLayer
 62
  256
370
   -1
100
AcDbPoint
 10
314
 20
35
  0
POINT
  5
F2
100
AcDbEntity
  8
filet
  6
ByLayer
 62
  256
370
   -1
100
AcDbPoint
 10
312
 20
33
  0
LINE
  5
F3
100
AcDbEntity
  8
structural
  6
ByLayer
 62
  256
370
   -1
100
AcDbLine
 10
312
 20
-2.939055249173705e-15
 11
312
 21
33
  0
LINE
  5
F4
100
AcDbEntity
  8
structural
  6
ByLayer
 62
  256
370
   -1
100
AcDbLine
 10
312
 20
35
 11
314
 21
35
  0
LINE
  5
F5
100
AcDbEntity
  8
structural
  6
ByLayer
 62
  256
370
   -1
100
AcDbLine
 10
312
 20
33
 11
312
 21
35
  0
LINE
  5
F6
100
AcDbEntity
  8
structural
  6
ByLayer
 62
  256
370
   -1
100
AcDbLine
 10
312
 20
33
 11
314
 21
35
  0
LINE
  5
F7
100
AcDbEntity
  8
structural
  6
ByLayer
 62
  256
370
   -1
100
AcDbLine
 10
381
 20
33
 11
383
 21
35
  0
POINT
  5
F8
100
AcDbEntity
  8
filet
  6
ByLayer
 62
  256
370
   -1
100
AcDbPoint
 10
312
 20
87
  0
POINT
  5
F9
100
AcDbEntity
  8
filet
  6
ByLayer
 62
  256
370
   -1
100
AcDbPoint
 10
314
 20
85
  0
LINE
  5
FA
100
AcDbEntity
  8
filet
  6
ByLayer
 62
  256
370
   -1
100
AcDbLine
 10
312
 20
87
 11
314
 21
85
  0
LINE
  5
FB
100
AcDbEntity
  8
structural
  6
ByLayer
 62
  256
370
   -1
100
AcDbLine
 10
312
 20
87
 11
312
 21
218
  0
LINE
  5
FC
100
AcDbEntity
  8
structural
  6
ByLayer
 62
  256
370
   -1
100
AcDbLine
 10
312
 20
35
 11
312
 21
85
  0
LINE
  5
FD
100
AcDbEntity
  8
structural
  6
ByLayer
 62
  256
370
   -1
100
AcDbLine
 10
312
 20
85
 11
312
 21
87
  0
LINE
  5
FE
100
AcDbEntity
  8
structural
  6
ByLayer
 62
  256
370
   -1
100
AcDbLine
 10
312
 20
85
 11
314
 21
85
  0
LINE
  5
FF
100
AcDbEntity
  8
filet
  6
ByLayer
 62
  256
370
   -1
100
AcDbLine
 10
381
 20
87
 11
383
 21
85
  0
POINT
  5
100
100
AcDbEntity
  8
filet
  6
ByLayer
 62
  256
370
   -1
100
AcDbPoint
 10
366
 20
33
  0
POINT
  5
101
100
AcDbEntity
  8
filet
  6
ByLayer
 62
  256
370
   -1
100
AcDbPoint
 10
364
 20
35
  0
LINE
  5
102
100
AcDbEntity
  8
filet
  6
ByLayer
 62
  256
370
   -1
100
AcDbLine
 10
366
 20
33
 11
364
 21
35
  0
LINE
  5
103
100
AcDbEntity
  8
structural
  6
ByLayer
 62
  256
370
   -1
100
AcDbLine
 10
366
 20
-1.616480387045538e-14
 11
366
 21
33
  0
LINE
  5
104
100
AcDbEntity
  8
structural
  6
ByLayer
 62
  256
370
   -1
100
AcDbLine
 10
366
 20
33
 11
366
 21
35
  0
LINE
  5
105
100
AcDbEntity
  8
structural
  6
ByLayer
 62
  256
370
   -1
100
AcDbLine
 10
314
 20
35
 11
364
 21
35
  0
LINE
  5
106
100
AcDbEntity
  8
structural
  6
ByLayer
 62
  256
370
   -1
100
AcDbLine
 10
364
 20
35
 11
366
 21
35
  0
POINT
  5
107
100
AcDbEntity
  8
filet
  6
ByLayer
 62
  256
370
   -1
100
AcDbPoint
 10
366
 20
87
  0
POINT
  5
108
100
AcDbEntity
  8
filet
  6
ByLayer
 62
  256
370
   -1
100
AcDbPoint
 10
364
 20
85
  0
LINE
  5
109
100
AcDbEntity
  8
filet
  6
ByLayer
 62
  256
370
   -1
100
AcDbLine
 10
366
 20
87
 11
364
 21
85
  0
LINE
  5
10A
100
AcDbEntity
  8
structural
  6
ByLayer
 62
  256
370
   -1
100
AcDbLine
 10
314
 20
85
 11
364
 21
85
  0
LINE
  5
10B
100
AcDbEntity
  8
structural
  6
ByLayer
 62
  256
370
   -1
100
AcDbLine
 10
364
 20
85
 11
366
 21
85
  0
LINE
  5
10C
100
AcDbEntity
  8
structural
  6
ByLayer
 62
  256
370
   -1
100
AcDbLine
 10
366
 20
35
 11
366
 21
85
  0
LINE
  5
10D
100
AcDbEntity
  8
structural
  6
ByLayer
 62
  256
370
   -1
100
AcDbLine
 10
366
 20
85
 11
366
 21
87
  0
LINE
  5
10E
100
AcDbEntity
  8
structural
  6
ByLayer
 62
  256
370
   -1
100
AcDbLine
 10
366
 20
87
 11
366
 21
218
  0
ENDBLK
  5
77
330
75
100
AcDbEntity
  8
0
100
AcDbBlockEnd
  0
BLOCK
  5
79
330
78
100
AcDbEntity
  8
0
100
AcDbBlockBegin
  2
hovairGaletAxe
 70
    0
 10
0
 20
0
  3
hovairGaletAxe
  1

  0
HATCH
  5
10F
100
AcDbEntity
  8
hash
  6
ByLayer
 62
  256
370
   -1
100
AcDbHatch
 10
0
 20
0
 30
0
210
0
220
0
230
1
  2
iso03w100
 70
    0
 71
    0
 91
    1
 92
    0
 93
    8
 72
    2
 10
13
 20
150
 40
2.5
 50
210.0000000000001
 51
253.0038351829481
 73
    0
 72
    2
 10
0
 20
150
 40
12.5
 50
11.02660946683683
 51
348.9733905331632
 73
    1
 72
    2
 10
13
 20
150
 40
2.5
 50
106.9961648170519
 51
149.9999999999903
 73
    0
 72
    1
 10
10.83493649053891
 20
148.75
 11
10.5
 21
148.75
 72
    1
 10
10.5
 20
148.75
 11
4.841229182758759
 21
148.75
 72
    2
 10
0
 20
150
 40
5
 50
14.47751218593212
 51
345.5224878140716
 73
    0
 72
    1
 10
4.841229182759784
 20
151.25
 11
10.5
 21
151.25
 72
    1
 10
10.5
 20
151.25
 11
10.83493649053891
 21
151.25
 97
    0
 75
    0
 76
    1
 52
-0.7853981633974483
 41
0.1
 77
    0
 78
    0
 98
    0
  0
HATCH
  5
110
100
AcDbEntity
  8
cotes
  6
ByLayer
 62
  256
370
   -1
100
AcDbHatch
 10
0
 20
0
 30
0
210
0
220
0
230
1
  2
SOLID
 70
    1
 71
    0
 91
    1
 92
    0
 93
    3
 72
    1
 10
29.46334346292854
 20
-91.47316499791484
 11
27.96682804422609
 21
-90.1463486573515
 72
    1
 10
27.96682804422609
 20
-90.1463486573515
 11
27.3882694130143
 21
-92.30627224633525
 72
    1
 10
27.3882694130143
 20
-92.30627224633525
 11
29.46334346292854
 21
-91.47316499791484
 97
    0
 75
    0
 76
    1
 98
    0
  0
HATCH
  5
111
100
AcDbEntity
  8
cotes
  6
ByLayer
 62
  256
370
   -1
100
AcDbHatch
 10
0
 20
0
 30
0
210
0
220
0
230
1
  2
SOLID
 70
    1
 71
    0
 91
    1
 92
    0
 93
    3
 72
    1
 10
3.999999999999993
 20
-18.30472453773637
 11
3.999999999999993
 21
-17.30472453773637
 72
    1
 10
3.999999999999993
 20
-17.30472453773637
 11
4.999999999999999
 21
-17.80472453773637
 72
    1
 10
4.999999999999999
 20
-17.80472453773637
 11
3.999999999999993
 21
-18.30472453773637
 97
    0
 75
    0
 76
    1
 98
    0
  0
HATCH
  5
112
100
AcDbEntity
  8
cotes
  6
ByLayer
 62
  256
370
   -1
100
AcDbHatch
 10
0
 20
0
 30
0
210
0
220
0
230
1
  2
SOLID
 70
    1
 71
    0
 91
    1
 92
    0
 93
    3
 72
    1
 10
-3.999999999999997
 20
-18.30472453773637
 11
-3.999999999999997
 21
-17.30472453773637
 72
    1
 10
-3.999999999999997
 20
-17.30472453773637
 11
-5.000000000000001
 21
-17.80472453773637
 72
    1
 10
-5.000000000000001
 20
-17.80472453773637
 11
-3.999999999999997
 21
-18.30472453773637
 97
    0
 75
    0
 76
    1
 98
    0
  0
HATCH
  5
113
100
AcDbEntity
  8
cotes
  6
ByLayer
 62
  256
370
   -1
100
AcDbHatch
 10
0
 20
0
 30
0
210
0
220
0
230
1
  2
SOLID
 70
    1
 71
    0
 91
    1
 92
    0
 93
    3
 72
    1
 10
-14.49999999999969
 20
101.2697019578277
 11
-14.49999999999969
 21
102.2697019578277
 72
    1
 10
-14.49999999999969
 20
102.2697019578277
 11
-12.5
 21
101.7697019578277
 72
    1
 10
-12.5
 20
101.7697019578277
 11
-14.49999999999969
 21
101.2697019578277
 97
    0
 75
    0
 76
    1
 98
    0
  0
HATCH
  5
114
100
AcDbEntity
  8
cotes
  6
ByLayer
 62
  256
370
   -1
100
AcDbHatch
 10
0
 20
0
 30
0
210
0
220
0
230
1
  2
SOLID
 70
    1
 71
    0
 91
    1
 92
    0
 93
    3
 72
    1
 10
14.50000000000059
 20
101.2697019578277
 11
14.50000000000059
 21
102.2697019578277
 72
    1
 10
14.50000000000059
 20
102.2697019578277
 11
12.5
 21
101.7697019578277
 72
    1
 10
12.5
 20
101.7697019578277
 11
14.50000000000059
 21
101.2697019578277
 97
    0
 75
    0
 76
    1
 98
    0
  0
HATCH
  5
115
100
AcDbEntity
  8
hash
  6
ByLayer
 62
  256
370
   -1
100
AcDbHatch
 10
0
 20
0
 30
0
210
0
220
0
230
1
  2
iso03w100
 70
    0
 71
    0
 91
    1
 92
    0
 93
   16
 72
    1
 10
-12.5
 20
84
 11
-11.5
 21
85
 72
    1
 10
-11.5
 20
85
 11
11.5
 21
85
 72
    1
 10
11.5
 20
85
 11
12.5
 21
84
 72
    1
 10
12.5
 20
84
 11
12.49999999999999
 21
71.44948974278336
 72
    2
 10
13
 20
69
 40
2.5
 50
101.5369590328148
 51
180.0000164682148
 73
    1
 72
    1
 10
10.5000000000001
 20
68.99999928143858
 11
10.5
 21
46.25
 72
    1
 10
10.5
 20
46.25
 11
4
 21
46.25
 72
    1
 10
4
 20
46.25
 11
4
 21
55
 72
    1
 10
4
 20
55
 11
3.509072834617673e-15
 21
57.3094010767585
 72
    1
 10
3.509072834617673e-15
 20
57.3094010767585
 11
-4
 21
55
 72
    1
 10
-4
 20
55
 11
-4
 21
5
 72
    1
 10
-4
 20
5
 11
-4
 21
0
 72
    1
 10
-4
 20
0
 11
-35
 21
0
 72
    1
 10
-35
 20
0
 11
-35
 21
5
 72
    1
 10
-35
 20
5
 11
-12.50000000000001
 21
5
 72
    1
 10
-12.50000000000001
 20
5
 11
-12.5
 21
84
 97
    0
 75
    0
 76
    1
 52
-0.7853981633974483
 41
0.1
 77
    0
 78
    0
 98
    0
  0
HATCH
  5
116
100
AcDbEntity
  8
hash
  6
ByLayer
 62
  256
370
   -1
100
AcDbHatch
 10
0
 20
0
 30
0
210
0
220
0
230
1
  2
iso03w100
 70
    0
 71
    0
 91
    1
 92
    0
 93
    9
 72
    2
 10
13
 20
21
 40
2.5
 50
101.5369590328154
 51
179.9999897522247
 73
    0
 72
    1
 10
10.50000000000004
 20
20.99999955285645
 11
10.5
 21
43.75
 72
    1
 10
10.5
 20
43.75
 11
4
 21
43.75
 72
    1
 10
4
 20
43.75
 11
4
 21
0
 72
    1
 10
4
 20
0
 11
10.58292891408664
 21
0
 72
    1
 10
10.58292891408664
 20
0
 11
21.4
 21
0
 72
    1
 10
21.4
 20
0
 11
21.4
 21
5
 72
    1
 10
21.4
 20
5
 11
12.49999999999999
 21
5
 72
    1
 10
12.49999999999999
 20
5
 11
12.49999999999999
 21
18.55051025721687
 97
    0
 75
    0
 76
    1
 52
-0.7853981633974483
 41
0.1
 77
    0
 78
    0
 98
    0
  0
HATCH
  5
117
100
AcDbEntity
  8
hash
  6
ByLayer
 62
  256
370
   -1
100
AcDbHatch
 10
0
 20
0
 30
0
210
0
220
0
230
1
  2
iso03w100
 70
    0
 71
    0
 91
    1
 92
    0
 93
    4
 72
    1
 10
35
 20
5
 11
28.6
 21
5
 72
    1
 10
28.6
 20
5
 11
28.6
 21
0
 72
    1
 10
28.6
 20
0
 11
35
 21
0
 72
    1
 10
35
 20
0
 11
35
 21
5
 97
    0
 75
    0
 76
    1
 52
-0.7853981633974483
 41
0.1
 77
    0
 78
    0
 98
    0
  0
HATCH
  5
118
100
AcDbEntity
  8
cotes
  6
ByLayer
 62
  256
370
   -1
100
AcDbHatch
 10
0
 20
0
 30
0
210
0
220
0
230
1
  2
SOLID
 70
    1
 71
    0
 91
    1
 92
    0
 93
    3
 72
    1
 10
48.22482666315693
 20
39.75000000000007
 11
50.22482666315693
 21
39.75000000000007
 72
    1
 10
50.22482666315693
 20
39.75000000000007
 11
49.22482666315693
 21
43.75
 72
    1
 10
49.22482666315693
 20
43.75
 11
48.22482666315693
 21
39.75000000000007
 97
    0
 75
    0
 76
    1
 98
    0
  0
HATCH
  5
119
100
AcDbEntity
  8
cotes
  6
ByLayer
 62
  256
370
   -1
100
AcDbHatch
 10
0
 20
0
 30
0
210
0
220
0
230
1
  2
SOLID
 70
    1
 71
    0
 91
    1
 92
    0
 93
    3
 72
    1
 10
48.22482666315693
 20
50.24999999999989
 11
50.22482666315693
 21
50.24999999999989
 72
    1
 10
50.22482666315693
 20
50.24999999999989
 11
49.22482666315693
 21
46.25
 72
    1
 10
49.22482666315693
 20
46.25
 11
48.22482666315693
 21
50.24999999999989
 97
    0
 75
    0
 76
    1
 98
    0
  0
HATCH
  5
11A
100
AcDbEntity
  8
cotes
  6
ByLayer
 62
  256
370
   -1
100
AcDbHatch
 10
0
 20
0
 30
0
210
0
220
0
230
1
  2
SOLID
 70
    1
 71
    0
 91
    1
 92
    0
 93
    3
 72
    1
 10
48.22482666315693
 20
89.00864464191415
 11
50.22482666315693
 21
89.00864464191415
 72
    1
 10
50.22482666315693
 20
89.00864464191415
 11
49.22482666315693
 21
85.00864464191426
 72
    1
 10
49.22482666315693
 20
85.00864464191426
 11
48.22482666315693
 21
89.00864464191415
 97
    0
 75
    0
 76
    1
 98
    0
  0
HATCH
  5
11B
100
AcDbEntity
  8
cotes
  6
ByLayer
 62
  256
370
   -1
100
AcDbHatch
 10
0
 20
0
 30
0
210
0
220
0
230
1
  2
SOLID
 70
    1
 71
    0
 91
    1
 92
    0
 93
    3
 72
    1
 10
48.22482666315693
 20
79.98436486975356
 11
50.22482666315693
 21
79.98436486975356
 72
    1
 10
50.22482666315693
 20
79.98436486975356
 11
49.22482666315693
 21
83.98436486975348
 72
    1
 10
49.22482666315693
 20
83.98436486975348
 11
48.22482666315693
 21
79.98436486975356
 97
    0
 75
    0
 76
    1
 98
    0
  0
HATCH
  5
11C
100
AcDbEntity
  8
cotes
  6
ByLayer
 62
  256
370
   -1
100
AcDbHatch
 10
0
 20
0
 30
0
210
0
220
0
230
1
  2
SOLID
 70
    1
 71
    0
 91
    1
 92
    0
 93
    3
 72
    1
 10
11.31209584774134
 20
149.8753561430339
 11
11.56209584774134
 21
150.3083688449262
 72
    1
 10
11.56209584774134
 20
150.3083688449262
 11
10.57107044395691
 21
150.59186249398
 72
    1
 10
10.57107044395691
 20
150.59186249398
 11
11.31209584774134
 21
149.8753561430339
 97
    0
 75
    0
 76
    1
 98
    0
  0
HATCH
  5
11D
100
AcDbEntity
  8
cut
  6
ByLayer
 62
  256
370
   -1
100
AcDbHatch
 10
0
 20
0
 30
0
210
0
220
0
230
1
  2
SOLID
 70
    1
 71
    0
 91
    1
 92
    0
 93
    3
 72
    1
 10
-28.5
 20
41.00000000000008
 11
-26.5
 21
41.00000000000008
 72
    1
 10
-26.5
 20
41.00000000000008
 11
-27.5
 21
45.00000000000001
 72
    1
 10
-27.5
 20
45.00000000000001
 11
-28.5
 21
41.00000000000008
 97
    0
 75
    0
 76
    1
 98
    0
  0
HATCH
  5
11E
100
AcDbEntity
  8
cut
  6
ByLayer
 62
  256
370
   -1
100
AcDbHatch
 10
0
 20
0
 30
0
210
0
220
0
230
1
  2
SOLID
 70
    1
 71
    0
 91
    1
 92
    0
 93
    3
 72
    1
 10
27
 20
41.00000000000008
 11
29
 21
41.00000000000008
 72
    1
 10
29
 20
41.00000000000008
 11
28
 21
45.00000000000001
 72
    1
 10
28
 20
45.00000000000001
 11
27
 21
41.00000000000008
 97
    0
 75
    0
 76
    1
 98
    0
  0
HATCH
  5
11F
100
AcDbEntity
  8
cut
  6
ByLayer
 62
  256
370
   -1
100
AcDbHatch
 10
0
 20
0
 30
0
210
0
220
0
230
1
  2
SOLID
 70
    1
 71
    0
 91
    1
 92
    0
 93
    3
 72
    1
 10
-46
 20
-98.99999999999991
 11
-44
 21
-98.99999999999991
 72
    1
 10
-44
 20
-98.99999999999991
 11
-45
 21
-95
 72
    1
 10
-45
 20
-95
 11
-46
 21
-98.99999999999991
 97
    0
 75
    0
 76
    1
 98
    0
  0
HATCH
  5
120
100
AcDbEntity
  8
cut
  6
ByLayer
 62
  256
370
   -1
100
AcDbHatch
 10
0
 20
0
 30
0
210
0
220
0
230
1
  2
SOLID
 70
    1
 71
    0
 91
    1
 92
    0
 93
    3
 72
    1
 10
44
 20
-98.99999999999991
 11
46
 21
-98.99999999999991
 72
    1
 10
46
 20
-98.99999999999991
 11
45
 21
-95
 72
    1
 10
45
 20
-95
 11
44
 21
-98.99999999999991
 97
    0
 75
    0
 76
    1
 98
    0
  0
LINE
  5
121
100
AcDbEntity
  8
structural
  6
ByLayer
 62
  256
370
   -1
100
AcDbLine
 10
35
 20
0
 11
35
 21
5
  0
LINE
  5
122
100
AcDbEntity
  8
structural
  6
ByLayer
 62
  256
370
   -1
100
AcDbLine
 10
-35
 20
0
 11
-35
 21
5
  0
LINE
  5
123
100
AcDbEntity
  8
structural
  6
ByLayer
 62
  256
370
   -1
100
AcDbLine
 10
-35
 20
5
 11
-12.50000000000001
 21
5
  0
LINE
  5
124
100
AcDbEntity
  8
center
  6
ByLayer
 62
  256
370
   -1
100
AcDbLine
 10
25
 20
25
 11
25
 21
-20
  0
LINE
  5
125
100
AcDbEntity
  8
structural
  6
ByLayer
 62
  256
370
   -1
100
AcDbLine
 10
-12.5
 20
84
 11
-12.50000000000001
 21
5
  0
LINE
  5
126
100
AcDbEntity
  8
structural
  6
ByLayer
 62
  256
370
   -1
100
AcDbLine
 10
-12.5
 20
84
 11
-11.5
 21
85
  0
LINE
  5
127
100
AcDbEntity
  8
structural
  6
ByLayer
 62
  256
370
   -1
100
AcDbLine
 10
11.5
 20
85
 11
12.5
 21
84
  0
LINE
  5
128
100
AcDbEntity
  8
structural
  6
ByLayer
 62
  256
370
   -1
100
AcDbLine
 10
28.6
 20
0
 11
28.6
 21
5
  0
LINE
  5
129
100
AcDbEntity
  8
structural
  6
ByLayer
 62
  256
370
   -1
100
AcDbLine
 10
21.4
 20
0
 11
21.4
 21
5
  0
LINE
  5
12A
100
AcDbEntity
  8
center
  6
ByLayer
 62
  256
370
   -1
100
AcDbLine
 10
-1.224606353822377e-15
 20
-20
 11
6.429183357567481e-15
 21
105
  0
ARC
  5
12B
100
AcDbEntity
  8
structural
  6
ByLayer
 62
  256
370
   -1
100
AcDbCircle
 10
13
 20
21
 40
2.5
100
AcDbArc
 50
180.0000102477753
 51
258.4630409671846
  0
ARC
  5
12C
100
AcDbEntity
  8
structural
  6
ByLayer
 62
  256
370
   -1
100
AcDbCircle
 10
13
 20
69
 40
2.5
100
AcDbArc
 50
101.5369590328148
 51
180.0000164682148
  0
LINE
  5
12D
100
AcDbEntity
  8
filet
  6
ByLayer
 62
  256
370
   -1
100
AcDbLine
 10
5
 20
0
 11
5
 21
30
  0
LINE
  5
12E
100
AcDbEntity
  8
filet
  6
ByLayer
 62
  256
370
   -1
100
AcDbLine
 10
-5
 20
0
 11
-5
 21
30
  0
CIRCLE
  5
12F
100
AcDbEntity
  8
structural
  6
ByLayer
 62
  256
370
   -1
100
AcDbCircle
 10
0
 20
-95
 40
35
  0
CIRCLE
  5
130
100
AcDbEntity
  8
structural
  6
ByLayer
 62
  256
370
   -1
100
AcDbCircle
 10
0
 20
-95
 40
12.5
  0
CIRCLE
  5
131
100
AcDbEntity
  8
structural
  6
ByLayer
 62
  256
370
   -1
100
AcDbCircle
 10
0
 20
-95
 40
11.5
  0
CIRCLE
  5
132
100
AcDbEntity
  8
structural
  6
ByLayer
 62
  256
370
   -1
100
AcDbCircle
 10
25
 20
-95
 40
3.6
  0
LINE
  5
133
100
AcDbEntity
  8
center
  6
ByLayer
 62
  256
370
   -1
100
AcDbLine
 10
-7.653789711389858e-15
 20
-150
 11
3.367667473011537e-15
 21
-40
  0
LINE
  5
134
100
AcDbEntity
  8
center
  6
ByLayer
 62
  256
370
   -1
100
AcDbLine
 10
25
 20
-118.6
 11
25
 21
-71.40000000000001
  0
LINE
  5
135
100
AcDbEntity
  8
structural
  6
ByLayer
 62
  256
370
   -1
100
AcDbLine
 10
-4
 20
55
 11
4
 21
55
  0
LINE
  5
136
100
AcDbEntity
  8
filet
  6
ByLayer
 62
  256
370
   -1
100
AcDbLine
 10
-5
 20
30
 11
-4
 21
31.73205080756888
  0
LINE
  5
137
100
AcDbEntity
  8
filet
  6
ByLayer
 62
  256
370
   -1
100
AcDbLine
 10
5
 20
30
 11
4
 21
31.73205080756888
  0
LINE
  5
138
100
AcDbEntity
  8
structural
  6
ByLayer
 62
  256
370
   -1
100
AcDbLine
 10
-4
 20
55
 11
3.509072834617673e-15
 21
57.3094010767585
  0
LINE
  5
139
100
AcDbEntity
  8
structural
  6
ByLayer
 62
  256
370
   -1
100
AcDbLine
 10
4
 20
55
 11
3.509072834617673e-15
 21
57.3094010767585
  0
LINE
  5
13A
100
AcDbEntity
  8
center
  6
ByLayer
 62
  256
370
   -1
100
AcDbLine
 10
-20
 20
45
 11
30.5
 21
45
  0
LINE
  5
13B
100
AcDbEntity
  8
structural
  6
ByLayer
 62
  256
370
   -1
100
AcDbLine
 10
4
 20
43.75
 11
10.5
 21
43.75
  0
LINE
  5
13C
100
AcDbEntity
  8
structural
  6
ByLayer
 62
  256
370
   -1
100
AcDbLine
 10
4
 20
46.25
 11
10.5
 21
46.25
  0
LINE
  5
13D
100
AcDbEntity
  8
center
  6
ByLayer
 62
  256
370
   -1
100
AcDbLine
 10
-42.5
 20
-95
 11
42.5
 21
-95
  0
ARC
  5
13E
100
AcDbEntity
  8
hidden
  6
ByLayer
 62
  256
370
   -1
100
AcDbCircle
 10
0
 20
-95
 40
4
100
AcDbArc
 50
0
 51
360
  0
ARC
  5
13F
100
AcDbEntity
  8
hidden
  6
ByLayer
 62
  256
370
   -1
100
AcDbCircle
 10
0
 20
-95
 40
5
100
AcDbArc
 50
90.00000000000009
 51
360
  0
LINE
  5
140
100
AcDbEntity
  8
center
  6
ByLayer
 62
  256
370
   -1
100
AcDbLine
 10
-32.5
 20
150
 11
32.5
 21
150
  0
LINE
  5
141
100
AcDbEntity
  8
center
  6
ByLayer
 62
  256
370
   -1
100
AcDbLine
 10
-1.989985324961363e-15
 20
117.5
 11
1.989985324961363e-15
 21
182.5
  0
LINE
  5
142
100
AcDbEntity
  8
structural
  6
ByLayer
 62
  256
370
   -1
100
AcDbLine
 10
10.5
 20
151.25
 11
10.83493649053891
 21
151.25
  0
LINE
  5
143
100
AcDbEntity
  8
structural
  6
ByLayer
 62
  256
370
   -1
100
AcDbLine
 10
10.5
 20
148.75
 11
10.83493649053891
 21
148.75
  0
LINE
  5
144
100
AcDbEntity
  8
structural
  6
ByLayer
 62
  256
370
   -1
100
AcDbLine
 10
4.841229182758759
 20
148.75
 11
10.5
 21
148.75
  0
LINE
  5
145
100
AcDbEntity
  8
structural
  6
ByLayer
 62
  256
370
   -1
100
AcDbLine
 10
4.841229182759784
 20
151.25
 11
10.5
 21
151.25
  0
LINE
  5
146
100
AcDbEntity
  8
hidden
  6
ByLayer
 62
  256
370
   -1
100
AcDbLine
 10
4.841229182759513
 20
-96.25
 11
3.799671038392499
 21
-96.25
  0
LINE
  5
147
100
AcDbEntity
  8
hidden
  6
ByLayer
 62
  256
370
   -1
100
AcDbLine
 10
4.841229182759784
 20
-93.75
 11
3.7996710383925
 21
-93.75
  0
LINE
  5
148
100
AcDbEntity
  8
hidden
  6
ByLayer
 62
  256
370
   -1
100
AcDbLine
 10
10.5
 20
-93.75
 11
10.83493649053891
 21
-93.75
  0
LINE
  5
149
100
AcDbEntity
  8
hidden
  6
ByLayer
 62
  256
370
   -1
100
AcDbLine
 10
10.5
 20
-96.25
 11
10.83493649053891
 21
-96.25
  0
ARC
  5
14A
100
AcDbEntity
  8
hidden
  6
ByLayer
 62
  256
370
   -1
100
AcDbCircle
 10
13
 20
-95
 40
2.5
100
AcDbArc
 50
106.9961648170519
 51
253.0038351829481
  0
LINE
  5
14B
100
AcDbEntity
  8
hidden
  6
ByLayer
 62
  256
370
   -1
100
AcDbLine
 10
4.841229182758759
 20
-96.25
 11
10.5
 21
-96.25
  0
LINE
  5
14C
100
AcDbEntity
  8
hidden
  6
ByLayer
 62
  256
370
   -1
100
AcDbLine
 10
4.841229182759784
 20
-93.75
 11
10.5
 21
-93.75
  0
ARC
  5
14D
100
AcDbEntity
  8
structural
  6
ByLayer
 62
  256
370
   -1
100
AcDbCircle
 10
0
 20
150
 40
5
100
AcDbArc
 50
345.5224878140679
 51
14.47751218592846
  0
ARC
  5
14E
100
AcDbEntity
  8
structural
  6
ByLayer
 62
  256
370
   -1
100
AcDbCircle
 10
0
 20
150
 40
5
100
AcDbArc
 50
14.47751218592846
 51
345.5224878140679
  0
ARC
  5
14F
100
AcDbEntity
  8
structural
  6
ByLayer
 62
  256
370
   -1
100
AcDbCircle
 10
13
 20
150
 40
2.5
100
AcDbArc
 50
106.9961648170519
 51
149.9999999999999
  0
ARC
  5
150
100
AcDbEntity
  8
structural
  6
ByLayer
 62
  256
370
   -1
100
AcDbCircle
 10
13
 20
150
 40
2.5
100
AcDbArc
 50
149.9999999999999
 51
210.0000000000097
  0
ARC
  5
151
100
AcDbEntity
  8
structural
  6
ByLayer
 62
  256
370
   -1
100
AcDbCircle
 10
13
 20
150
 40
2.5
100
AcDbArc
 50
210.0000000000097
 51
253.0038351829481
  0
ARC
  5
152
100
AcDbEntity
  8
structural
  6
ByLayer
 62
  256
370
   -1
100
AcDbCircle
 10
0
 20
150
 40
12.5
100
AcDbArc
 50
348.9733905331632
 51
11.02660946683681
  0
ARC
  5
153
100
AcDbEntity
  8
structural
  6
ByLayer
 62
  256
370
   -1
100
AcDbCircle
 10
0
 20
150
 40
12.5
100
AcDbArc
 50
11.02660946683683
 51
348.9733905331632
  0
LINE
  5
154
100
AcDbEntity
  8
structural
  6
ByLayer
 62
  256
370
   -1
100
AcDbLine
 10
-4
 20
0
 11
4
 21
0
  0
LINE
  5
155
100
AcDbEntity
  8
structural
  6
ByLayer
 62
  256
370
   -1
100
AcDbLine
 10
21.4
 20
0
 11
28.6
 21
0
  0
LINE
  5
156
100
AcDbEntity
  8
structural
  6
ByLayer
 62
  256
370
   -1
100
AcDbLine
 10
28.6
 20
0
 11
35
 21
0
  0
LINE
  5
157
100
AcDbEntity
  8
structural
  6
ByLayer
 62
  256
370
   -1
100
AcDbLine
 10
28.6
 20
5
 11
35
 21
5
  0
LINE
  5
158
100
AcDbEntity
  8
structural
  6
ByLayer
 62
  256
370
   -1
100
AcDbLine
 10
12.49999999999999
 20
5
 11
21.4
 21
5
  0
LINE
  5
159
100
AcDbEntity
  8
structural
  6
ByLayer
 62
  256
370
   -1
100
AcDbLine
 10
21.4
 20
5
 11
28.6
 21
5
  0
LINE
  5
15A
100
AcDbEntity
  8
structural
  6
ByLayer
 62
  256
370
   -1
100
AcDbLine
 10
10.5
 20
43.75
 11
10.5
 21
46.25
  0
LINE
  5
15B
100
AcDbEntity
  8
structural
  6
ByLayer
 62
  256
370
   -1
100
AcDbLine
 10
4
 20
43.75
 11
4
 21
46.25
  0
LINE
  5
15C
100
AcDbEntity
  8
structural
  6
ByLayer
 62
  256
370
   -1
100
AcDbLine
 10
4
 20
46.25
 11
4
 21
55
  0
LINE
  5
15D
100
AcDbEntity
  8
structural
  6
ByLayer
 62
  256
370
   -1
100
AcDbLine
 10
-4
 20
0
 11
-4
 21
5
  0
LINE
  5
15E
100
AcDbEntity
  8
structural
  6
ByLayer
 62
  256
370
   -1
100
AcDbLine
 10
-4
 20
5
 11
-4
 21
55
  0
LINE
  5
15F
100
AcDbEntity
  8
structural
  6
ByLayer
 62
  256
370
   -1
100
AcDbLine
 10
-11.5
 20
85
 11
11.5
 21
85
  0
POINT
  5
160
100
AcDbEntity
  8
cotes
  6
ByLayer
 62
  256
370
   -1
100
AcDbPoint
 10
28.71508575357732
 20
-90.80975682763317
  0
LINE
  5
161
100
AcDbEntity
  8
cotes
  6
ByLayer
 62
  256
370
   -1
100
AcDbLine
 10
29.46334346292854
 20
-91.47316499791484
 11
27.96682804422609
 21
-90.1463486573515
  0
LINE
  5
162
100
AcDbEntity
  8
cotes
  6
ByLayer
 62
  256
370
   -1
100
AcDbLine
 10
27.3882694130143
 20
-92.30627224633525
 11
27.96682804422609
 21
-90.1463486573515
  0
LINE
  5
163
100
AcDbEntity
  8
cotes
  6
ByLayer
 62
  256
370
   -1
100
AcDbLine
 10
27.3882694130143
 20
-92.30627224633525
 11
29.46334346292854
 21
-91.47316499791484
  0
LINE
  5
164
100
AcDbEntity
  8
cotes
  6
ByLayer
 62
  256
370
   -1
100
AcDbLine
 10
28.71508575357732
 20
-90.80975682763317
 11
49.67908355011273
 21
-67.16447527582528
  0
LINE
  5
165
100
AcDbEntity
  8
cotes
  6
ByLayer
 62
  256
370
   -1
100
AcDbLine
 10
49.67908355011273
 20
-67.16447527582528
 11
69.67908355011272
 21
-67.16447527582528
  0
MTEXT
  5
166
100
AcDbEntity
  8
cotes
  6
ByLayer
 62
  256
370
   -1
100
AcDbMText
 10
49.67908355011273
 20
-67.16447527582528
 30
0
 40
5
 41
13.33333333333333
 71
    7
 72
    1
  1
7.2\P
  7
standard
210
0
220
0
230
1
 50
0
 73
    2
 44
0.5
  0
DIMENSION
  5
167
100
AcDbEntity
  8
cotes
  6
ByLayer
 62
  256
370
   -1
100
AcDbDimension
 10
25
 20
-150
 30
0
 11
12.5
 21
-145.3125
 31
0
 70
   32
 71
    5
  3
Standard
 53
0
210
0
220
0
230
1
100
AcDbAlignedDimension
 13
0
 23
-95
 33
0
 14
25
 24
-95
 34
0
100
AcDbRotatedDimension
  0
DIMENSION
  5
168
100
AcDbEntity
  8
cotes
  6
ByLayer
 62
  256
370
   -1
100
AcDbDimension
 10
35
 20
-36.25714520467002
 30
0
 11
2.870171141771197e-16
 21
-31.56964520467002
 31
0
 70
   32
 71
    5
  3
Standard
 53
0
210
0
220
0
230
1
100
AcDbAlignedDimension
 13
-35
 23
0
 33
0
 14
35
 24
0
 34
0
100
AcDbRotatedDimension
  0
LINE
  5
169
100
AcDbEntity
  8
cotes
  6
ByLayer
 62
  256
370
   -1
100
AcDbLine
 10
-5
 20
0
 11
-5.000000000000001
 21
-20
  0
LINE
  5
16A
100
AcDbEntity
  8
cotes
  6
ByLayer
 62
  256
370
   -1
100
AcDbLine
 10
5
 20
0
 11
4.999999999999999
 21
-20
  0
LINE
  5
16B
100
AcDbEntity
  8
cotes
  6
ByLayer
 62
  256
370
   -1
100
AcDbLine
 10
-3.999999999999997
 20
-18.30472453773637
 11
-3.999999999999997
 21
-17.30472453773637
  0
LINE
  5
16C
100
AcDbEntity
  8
cotes
  6
ByLayer
 62
  256
370
   -1
100
AcDbLine
 10
3.999999999999993
 20
-18.30472453773637
 11
3.999999999999993
 21
-17.30472453773637
  0
LINE
  5
16D
100
AcDbEntity
  8
cotes
  6
ByLayer
 62
  256
370
   -1
100
AcDbLine
 10
-5.000000000000001
 20
-17.80472453773637
 11
-3.999999999999997
 21
-17.30472453773637
  0
LINE
  5
16E
100
AcDbEntity
  8
cotes
  6
ByLayer
 62
  256
370
   -1
100
AcDbLine
 10
-5.000000000000001
 20
-17.80472453773637
 11
-3.999999999999997
 21
-18.30472453773637
  0
LINE
  5
16F
100
AcDbEntity
  8
cotes
  6
ByLayer
 62
  256
370
   -1
100
AcDbLine
 10
4.999999999999999
 20
-17.80472453773637
 11
3.999999999999993
 21
-17.30472453773637
  0
LINE
  5
170
100
AcDbEntity
  8
cotes
  6
ByLayer
 62
  256
370
   -1
100
AcDbLine
 10
4.999999999999999
 20
-17.80472453773637
 11
3.999999999999993
 21
-18.30472453773637
  0
LINE
  5
171
100
AcDbEntity
  8
cotes
  6
ByLayer
 62
  256
370
   -1
100
AcDbLine
 10
-3.999999999999997
 20
-17.80472453773637
 11
3.999999999999993
 21
-17.80472453773637
  0
LINE
  5
172
100
AcDbEntity
  8
cotes
  6
ByLayer
 62
  256
370
   -1
100
AcDbLine
 10
-4.999999999999998
 20
-17.80472453773637
 11
-25
 21
-17.80472453773637
  0
MTEXT
  5
173
100
AcDbEntity
  8
cotes
  6
ByLayer
 62
  256
370
   -1
100
AcDbMText
 10
-25
 20
-17.80472453773637
 30
0
 40
5
 41
10
 71
    7
 72
    1
  1
M10\P
  7
standard
210
0
220
0
230
1
 50
0
 73
    2
 44
0.5
  0
DIMENSION
  5
174
100
AcDbEntity
  8
cotes
  6
ByLayer
 62
  256
370
   -1
100
AcDbDimension
 10
-45.1112925542446
 20
30
 30
0
 11
-49.7987925542446
 21
15
 31
0
 70
   32
 71
    5
  3
Standard
 53
0
210
0
220
0
230
1
100
AcDbAlignedDimension
 13
-35
 23
0
 33
0
 14
-4
 24
30
 34
0
 50
90
100
AcDbRotatedDimension
  0
DIMENSION
  5
175
100
AcDbEntity
  8
cotes
  6
ByLayer
 62
  256
370
   -1
100
AcDbDimension
 10
-62.444695604644
 20
45.00000000000001
 30
0
 11
-67.132195604644
 21
22.5
 31
0
 70
   32
 71
    5
  3
Standard
 53
0
210
0
220
0
230
1
100
AcDbAlignedDimension
 13
-35
 23
0
 33
0
 14
2.755364296100349e-15
 24
45
 34
0
 50
90
100
AcDbRotatedDimension
  0
DIMENSION
  5
176
100
AcDbEntity
  8
cotes
  6
ByLayer
 62
  256
370
   -1
100
AcDbDimension
 10
-79.77809865504339
 20
55.00000000000001
 30
0
 11
-84.46559865504339
 21
27.5
 31
0
 70
   32
 71
    5
  3
Standard
 53
0
210
0
220
0
230
1
100
AcDbAlignedDimension
 13
-35
 23
0
 33
0
 14
-4
 24
55
 34
0
 50
90
100
AcDbRotatedDimension
  0
LINE
  5
177
100
AcDbEntity
  8
cotes
  6
ByLayer
 62
  256
370
   -1
100
AcDbLine
 10
-12.5
 20
85
 11
-12.5
 21
105
  0
LINE
  5
178
100
AcDbEntity
  8
cotes
  6
ByLayer
 62
  256
370
   -1
100
AcDbLine
 10
12.5
 20
85
 11
12.5
 21
105
  0
LINE
  5
179
100
AcDbEntity
  8
cotes
  6
ByLayer
 62
  256
370
   -1
100
AcDbLine
 10
-14.49999999999969
 20
101.2697019578277
 11
-14.49999999999969
 21
102.2697019578277
  0
LINE
  5
17A
100
AcDbEntity
  8
cotes
  6
ByLayer
 62
  256
370
   -1
100
AcDbLine
 10
14.50000000000059
 20
101.2697019578277
 11
14.50000000000059
 21
102.2697019578277
  0
LINE
  5
17B
100
AcDbEntity
  8
cotes
  6
ByLayer
 62
  256
370
   -1
100
AcDbLine
 10
-14.49999999999969
 20
102.2697019578277
 11
-12.5
 21
101.7697019578277
  0
LINE
  5
17C
100
AcDbEntity
  8
cotes
  6
ByLayer
 62
  256
370
   -1
100
AcDbLine
 10
-12.5
 20
101.7697019578277
 11
-14.49999999999969
 21
101.2697019578277
  0
LINE
  5
17D
100
AcDbEntity
  8
cotes
  6
ByLayer
 62
  256
370
   -1
100
AcDbLine
 10
14.50000000000059
 20
102.2697019578277
 11
12.5
 21
101.7697019578277
  0
LINE
  5
17E
100
AcDbEntity
  8
cotes
  6
ByLayer
 62
  256
370
   -1
100
AcDbLine
 10
12.5
 20
101.7697019578277
 11
14.50000000000059
 21
101.2697019578277
  0
LINE
  5
17F
100
AcDbEntity
  8
cotes
  6
ByLayer
 62
  256
370
   -1
100
AcDbLine
 10
-14.49999999999969
 20
101.7697019578277
 11
-22.5
 21
101.7697019578277
  0
LINE
  5
180
100
AcDbEntity
  8
cotes
  6
ByLayer
 62
  256
370
   -1
100
AcDbLine
 10
22.5
 20
101.7697019578277
 11
14.50000000000059
 21
101.7697019578277
  0
LINE
  5
181
100
AcDbEntity
  8
cotes
  6
ByLayer
 62
  256
370
   -1
100
AcDbLine
 10
12.5
 20
101.7697019578277
 11
-12.49999999999999
 21
101.7697019578277
  0
MTEXT
  5
182
100
AcDbEntity
  8
cotes
  6
ByLayer
 62
  256
370
   -1
100
AcDbMText
 10
-12.49999999999999
 20
101.7697019578277
 30
0
 40
5
 41
11.66666666666698
 71
    7
 72
    1
  1
25\P
  7
standard
210
0
220
0
230
1
 50
0
 73
    2
 44
0.5
  0
MTEXT
  5
183
100
AcDbEntity
  8
cotes
  6
ByLayer
 62
  256
370
   -1
100
AcDbMText
 10
6.429183357567481e-15
 20
105
 30
0
 40
2.5
 41
7.777777777777933
 71
    7
 72
    1
  1
 0\P-0.05
  7
standard
210
0
220
0
230
1
 50
0
 73
    2
 44
1
  0
DIMENSION
  5
184
100
AcDbEntity
  8
cotes
  6
ByLayer
 62
  256
370
   -1
100
AcDbDimension
 10
49.2344403240573
 20
4.999999999999998
 30
0
 11
44.5469403240573
 21
2.5
 31
0
 70
   32
 71
    5
  3
Standard
 53
0
210
0
220
0
230
1
100
AcDbAlignedDimension
 13
35
 23
0
 33
0
 14
35
 24
5
 34
0
 50
90
100
AcDbRotatedDimension
  0
DIMENSION
  5
185
100
AcDbEntity
  8
cotes
  6
ByLayer
 62
  256
370
   -1
100
AcDbDimension
 10
78.56965052275018
 20
84.99999999999999
 30
0
 11
73.88215052275018
 21
42.5
 31
0
 70
   32
 71
    5
  3
Standard
 53
0
210
0
220
0
230
1
100
AcDbAlignedDimension
 13
35
 23
0
 33
0
 14
11.5
 24
85
 34
0
 50
90
100
AcDbRotatedDimension
  0
LINE
  5
186
100
AcDbEntity
  8
filet
  6
ByLayer
 62
  256
370
   -1
100
AcDbLine
 10
-5
 20
30
 11
5
 21
30
  0
LINE
  5
187
100
AcDbEntity
  8
structural
  6
ByLayer
 62
  256
370
   -1
100
AcDbLine
 10
12.5
 20
84
 11
12.49999999999999
 21
71.44948974278336
  0
LINE
  5
188
100
AcDbEntity
  8
structural
  6
ByLayer
 62
  256
370
   -1
100
AcDbLine
 10
10.5
 20
46.25
 11
10.5000000000001
 21
68.99999928143858
  0
LINE
  5
189
100
AcDbEntity
  8
structural
  6
ByLayer
 62
  256
370
   -1
100
AcDbLine
 10
12.49999999999999
 20
71.44948974278336
 11
12.49999999999999
 21
18.55051025721687
  0
LINE
  5
18A
100
AcDbEntity
  8
structural
  6
ByLayer
 62
  256
370
   -1
100
AcDbLine
 10
12.49999999999999
 20
18.55051025721687
 11
12.49999999999999
 21
5
  0
LINE
  5
18B
100
AcDbEntity
  8
structural
  6
ByLayer
 62
  256
370
   -1
100
AcDbLine
 10
10.5
 20
43.75
 11
10.50000000000004
 21
20.99999955285645
  0
POINT
  5
18C
100
AcDbEntity
  8
structural
  6
ByLayer
 62
  256
370
   -1
100
AcDbPoint
 10
4
 20
0
  0
LINE
  5
18D
100
AcDbEntity
  8
structural
  6
ByLayer
 62
  256
370
   -1
100
AcDbLine
 10
4
 20
0
 11
4
 21
43.75
  0
LINE
  5
18E
100
AcDbEntity
  8
structural
  6
ByLayer
 62
  256
370
   -1
100
AcDbLine
 10
4
 20
0
 11
21.4
 21
0
  0
DIMENSION
  5
18F
100
AcDbEntity
  8
cotes
  6
ByLayer
 62
  256
370
   -1
100
AcDbDimension
 10
65.18826219516352
 20
68.99999999999999
 30
0
 11
60.50076219516352
 21
45
 31
0
 70
   32
 71
    5
 72
    0
  3
Standard
 53
0
210
0
220
0
230
1
100
AcDbAlignedDimension
 13
13
 23
21
 33
0
 14
13
 24
69
 34
0
 50
90
100
AcDbRotatedDimension
  0
DIMENSION
  5
190
100
AcDbEntity
  8
cotes
  6
ByLayer
 62
  256
370
   -1
100
AcDbDimension
 10
65.21022561237299
 20
20.99999999999999
 30
0
 11
60.52272561237299
 21
10.5
 31
0
 70
   32
 71
    5
 72
    0
  3
Standard
 53
0
210
0
220
0
230
1
100
AcDbAlignedDimension
 13
35
 23
0
 33
0
 14
13
 24
21
 34
0
 50
90
100
AcDbRotatedDimension
  0
LINE
  5
191
100
AcDbEntity
  8
cotes
  6
ByLayer
 62
  256
370
   -1
100
AcDbLine
 10
48.22482666315693
 20
50.24999999999989
 11
50.22482666315693
 21
50.24999999999989
  0
LINE
  5
192
100
AcDbEntity
  8
cotes
  6
ByLayer
 62
  256
370
   -1
100
AcDbLine
 10
48.22482666315693
 20
39.75000000000007
 11
50.22482666315693
 21
39.75000000000007
  0
LINE
  5
193
100
AcDbEntity
  8
cotes
  6
ByLayer
 62
  256
370
   -1
100
AcDbLine
 10
48.22482666315693
 20
50.24999999999989
 11
49.22482666315693
 21
46.25
  0
LINE
  5
194
100
AcDbEntity
  8
cotes
  6
ByLayer
 62
  256
370
   -1
100
AcDbLine
 10
49.22482666315693
 20
46.25
 11
50.22482666315693
 21
50.24999999999989
  0
LINE
  5
195
100
AcDbEntity
  8
cotes
  6
ByLayer
 62
  256
370
   -1
100
AcDbLine
 10
48.22482666315693
 20
39.75000000000007
 11
49.22482666315693
 21
43.75
  0
LINE
  5
196
100
AcDbEntity
  8
cotes
  6
ByLayer
 62
  256
370
   -1
100
AcDbLine
 10
49.22482666315693
 20
43.75
 11
50.22482666315693
 21
39.75000000000007
  0
LINE
  5
197
100
AcDbEntity
  8
cotes
  6
ByLayer
 62
  256
370
   -1
100
AcDbLine
 10
14.53455257996495
 20
46.25
 11
52.32438928787372
 21
46.25
  0
LINE
  5
198
100
AcDbEntity
  8
cotes
  6
ByLayer
 62
  256
370
   -1
100
AcDbLine
 10
14.53455257996495
 20
43.75
 11
52.32438928787372
 21
43.75
  0
MTEXT
  5
199
100
AcDbEntity
  8
cotes
  6
ByLayer
 62
  256
370
   -1
100
AcDbMText
 10
49.22482666315693
 20
25.60354283204202
 30
0
 40
5
 41
13.33333333333364
 71
    7
 72
    1
  1
2.5\P
  7
standard
210
0
220
0
230
1
 50
90
 73
    2
 44
0.2
  0
LINE
  5
19A
100
AcDbEntity
  8
cotes
  6
ByLayer
 62
  256
370
   -1
100
AcDbLine
 10
13.0625
 20
84
 11
81.69465052275018
 21
84
  0
LINE
  5
19B
100
AcDbEntity
  8
cotes
  6
ByLayer
 62
  256
370
   -1
100
AcDbLine
 10
49.22482666315693
 20
25.60354283204202
 11
49.22482666315693
 21
39.75000000000007
  0
LINE
  5
19C
100
AcDbEntity
  8
cotes
  6
ByLayer
 62
  256
370
   -1
100
AcDbLine
 10
49.22482666315693
 20
50.24999999999989
 11
49.22482666315693
 21
52.57521390701758
  0
LINE
  5
19D
100
AcDbEntity
  8
cotes
  6
ByLayer
 62
  256
370
   -1
100
AcDbLine
 10
49.22482666315693
 20
43.74999999999999
 11
49.22482666315693
 21
46.25
  0
LINE
  5
19E
100
AcDbEntity
  8
cotes
  6
ByLayer
 62
  256
370
   -1
100
AcDbLine
 10
48.22482666315693
 20
89.00864464191415
 11
50.22482666315693
 21
89.00864464191415
  0
LINE
  5
19F
100
AcDbEntity
  8
cotes
  6
ByLayer
 62
  256
370
   -1
100
AcDbLine
 10
48.22482666315693
 20
89.00864464191415
 11
49.22482666315693
 21
85.00864464191426
  0
LINE
  5
1A0
100
AcDbEntity
  8
cotes
  6
ByLayer
 62
  256
370
   -1
100
AcDbLine
 10
49.22482666315693
 20
85.00864464191426
 11
50.22482666315693
 21
89.00864464191415
  0
LINE
  5
1A1
100
AcDbEntity
  8
cotes
  6
ByLayer
 62
  256
370
   -1
100
AcDbLine
 10
48.22482666315693
 20
79.98436486975356
 11
50.22482666315693
 21
79.98436486975356
  0
LINE
  5
1A2
100
AcDbEntity
  8
cotes
  6
ByLayer
 62
  256
370
   -1
100
AcDbLine
 10
48.22482666315693
 20
79.98436486975356
 11
49.22482666315693
 21
83.98436486975348
  0
LINE
  5
1A3
100
AcDbEntity
  8
cotes
  6
ByLayer
 62
  256
370
   -1
100
AcDbLine
 10
49.22482666315693
 20
83.98436486975348
 11
50.22482666315693
 21
79.98436486975356
  0
LINE
  5
1A4
100
AcDbEntity
  8
cotes
  6
ByLayer
 62
  256
370
   -1
100
AcDbLine
 10
49.22482666315693
 20
77.61313866973869
 11
49.22482666315693
 21
79.93835257675639
  0
LINE
  5
1A5
100
AcDbEntity
  8
cotes
  6
ByLayer
 62
  256
370
   -1
100
AcDbLine
 10
49.22482666315693
 20
85.00864464191427
 11
49.22482666315693
 21
83.98436486975348
  0
MTEXT
  5
1A6
100
AcDbEntity
  8
cotes
  6
ByLayer
 62
  256
370
   -1
100
AcDbMText
 10
49.22482666315693
 20
89.00864464191415
 30
0
 40
5
 41
24.16666666666698
 71
    7
 72
    1
  1
1 x 45%%D\P
  7
standard
210
0
220
0
230
1
 50
90
 73
    2
 44
0.2
  0
LINE
  5
1A7
100
AcDbEntity
  8
cotes
  6
ByLayer
 62
  256
370
   -1
100
AcDbLine
 10
49.22482666315693
 20
89.00864464191415
 11
49.22482666315693
 21
111.3338585489318
  0
DIMENSION
  5
1A8
100
AcDbEntity
  8
cotes
  6
ByLayer
 62
  256
370
   -1
100
AcDbDimension
 10
13
 20
180.0007239849378
 30
0
 11
6.499999999999999
 21
184.6882239849378
 31
0
 70
   32
 71
    5
 72
    0
  3
Standard
 53
0
210
0
220
0
230
1
100
AcDbAlignedDimension
 13
0
 23
150
 33
0
 14
13
 24
150
 34
0
100
AcDbRotatedDimension
  0
LINE
  5
1A9
100
AcDbEntity
  8
cotes
  6
ByLayer
 62
  256
370
   -1
100
AcDbLine
 10
11.31209584774134
 20
149.8753561430339
 11
11.56209584774134
 21
150.3083688449262
  0
LINE
  5
1AA
100
AcDbEntity
  8
cotes
  6
ByLayer
 62
  256
370
   -1
100
AcDbLine
 10
10.57107044395691
 20
150.59186249398
 11
11.31209584774134
 21
149.8753561430339
  0
LINE
  5
1AB
100
AcDbEntity
  8
cotes
  6
ByLayer
 62
  256
370
   -1
100
AcDbLine
 10
10.57107044395691
 20
150.59186249398
 11
11.56209584774134
 21
150.3083688449262
  0
LINE
  5
1AC
100
AcDbEntity
  8
cotes
  6
ByLayer
 62
  256
370
   -1
100
AcDbLine
 10
18.36703370534988
 20
146.0908610064224
 11
38.36703370534988
 21
146.0908610064224
  0
MTEXT
  5
1AD
100
AcDbEntity
  8
cotes
  6
ByLayer
 62
  256
370
   -1
100
AcDbMText
 10
18.36703370534987
 20
146.0908610064224
 30
0
 40
5
 41
15.97222222222253
 71
    7
 72
    1
  1
R 2.5\P\P
  7
standard
210
0
220
0
230
1
 50
0
 73
    2
 44
0.2
  0
LINE
  5
1AE
100
AcDbEntity
  8
cotes
  6
ByLayer
 62
  256
370
   -1
100
AcDbLine
 10
11.4370958477413
 20
150.09186249398
 11
18.36703370534987
 21
146.0908610064224
  0
LINE
  5
1AF
100
AcDbEntity
  8
cut
  6
ByLayer
 62
  256
370
   -1
100
AcDbLine
 10
30.5
 20
45
 11
25.5
 21
45
  0
LINE
  5
1B0
100
AcDbEntity
  8
cut
  6
ByLayer
 62
  256
370
   -1
100
AcDbLine
 10
-25
 20
45
 11
-30
 21
45
  0
LINE
  5
1B1
100
AcDbEntity
  8
cotes
  6
ByLayer
 62
  256
370
   -1
100
AcDbLine
 10
27
 20
41.00000000000008
 11
29
 21
41.00000000000008
  0
LINE
  5
1B2
100
AcDbEntity
  8
cotes
  6
ByLayer
 62
  256
370
   -1
100
AcDbLine
 10
27
 20
41.00000000000008
 11
28
 21
45.00000000000001
  0
LINE
  5
1B3
100
AcDbEntity
  8
cotes
  6
ByLayer
 62
  256
370
   -1
100
AcDbLine
 10
28
 20
45.00000000000001
 11
29
 21
41.00000000000008
  0
LINE
  5
1B4
100
AcDbEntity
  8
cotes
  6
ByLayer
 62
  256
370
   -1
100
AcDbLine
 10
28
 20
26.85354283204203
 11
28
 21
41.00000000000008
  0
LINE
  5
1B5
100
AcDbEntity
  8
cotes
  6
ByLayer
 62
  256
370
   -1
100
AcDbLine
 10
-28.5
 20
41.00000000000008
 11
-26.5
 21
41.00000000000008
  0
LINE
  5
1B6
100
AcDbEntity
  8
cotes
  6
ByLayer
 62
  256
370
   -1
100
AcDbLine
 10
-28.5
 20
41.00000000000008
 11
-27.5
 21
45.00000000000001
  0
LINE
  5
1B7
100
AcDbEntity
  8
cotes
  6
ByLayer
 62
  256
370
   -1
100
AcDbLine
 10
-27.5
 20
45.00000000000001
 11
-26.5
 21
41.00000000000008
  0
LINE
  5
1B8
100
AcDbEntity
  8
cotes
  6
ByLayer
 62
  256
370
   -1
100
AcDbLine
 10
-27.5
 20
26.85354283204203
 11
-27.5
 21
41.00000000000008
  0
MTEXT
  5
1B9
100
AcDbEntity
  8
cut
  6
ByLayer
 62
  256
370
   -1
100
AcDbMText
 10
-27.5
 20
33.92677141602105
 30
0
 40
5
 41
2.777777777777778
 71
    9
 72
    1
  1
B\P
  7
standard
210
0
220
0
230
1
 50
90
 73
    2
 44
0.2
  0
MTEXT
  5
1BA
100
AcDbEntity
  8
cut
  6
ByLayer
 62
  256
370
   -1
100
AcDbMText
 10
28
 20
33.92677141602105
 30
0
 40
5
 41
2.777777777777778
 71
    9
 72
    1
  1
B\P
  7
standard
210
0
220
0
230
1
 50
90
 73
    2
 44
0.2
  0
LINE
  5
1BB
100
AcDbEntity
  8
cut
  6
ByLayer
 62
  256
370
   -1
100
AcDbLine
 10
-42.5
 20
-95
 11
-47.5
 21
-95
  0
LINE
  5
1BC
100
AcDbEntity
  8
cut
  6
ByLayer
 62
  256
370
   -1
100
AcDbLine
 10
42.5
 20
-95
 11
47.5
 21
-95
  0
LINE
  5
1BD
100
AcDbEntity
  8
cotes
  6
ByLayer
 62
  256
370
   -1
100
AcDbLine
 10
-46
 20
-98.99999999999991
 11
-44
 21
-98.99999999999991
  0
LINE
  5
1BE
100
AcDbEntity
  8
cotes
  6
ByLayer
 62
  256
370
   -1
100
AcDbLine
 10
-46
 20
-98.99999999999991
 11
-45
 21
-95
  0
LINE
  5
1BF
100
AcDbEntity
  8
cotes
  6
ByLayer
 62
  256
370
   -1
100
AcDbLine
 10
-45
 20
-95
 11
-44
 21
-98.99999999999991
  0
LINE
  5
1C0
100
AcDbEntity
  8
cotes
  6
ByLayer
 62
  256
370
   -1
100
AcDbLine
 10
-45
 20
-113.146457167958
 11
-45
 21
-98.99999999999991
  0
LINE
  5
1C1
100
AcDbEntity
  8
cotes
  6
ByLayer
 62
  256
370
   -1
100
AcDbLine
 10
44
 20
-98.99999999999991
 11
46
 21
-98.99999999999991
  0
LINE
  5
1C2
100
AcDbEntity
  8
cotes
  6
ByLayer
 62
  256
370
   -1
100
AcDbLine
 10
44
 20
-98.99999999999991
 11
45
 21
-95
  0
LINE
  5
1C3
100
AcDbEntity
  8
cotes
  6
ByLayer
 62
  256
370
   -1
100
AcDbLine
 10
45
 20
-95
 11
46
 21
-98.99999999999991
  0
LINE
  5
1C4
100
AcDbEntity
  8
cotes
  6
ByLayer
 62
  256
370
   -1
100
AcDbLine
 10
45
 20
-113.146457167958
 11
45
 21
-98.99999999999991
  0
MTEXT
  5
1C5
100
AcDbEntity
  8
cut
  6
ByLayer
 62
  256
370
   -1
100
AcDbMText
 10
45
 20
-106.0732285839789
 30
0
 40
5
 41
3.333333333333333
 71
    9
 72
    1
  1
A\P
  7
standard
210
0
220
0
230
1
 50
90
 73
    2
 44
0.2
  0
MTEXT
  5
1C6
100
AcDbEntity
  8
cut
  6
ByLayer
 62
  256
370
   -1
100
AcDbMText
 10
-45
 20
-106.0732285839789
 30
0
 40
5
 41
3.333333333333333
 71
    9
 72
    1
  1
A\P
  7
standard
210
0
220
0
230
1
 50
90
 73
    2
 44
0.2
  0
MTEXT
  5
1C7
100
AcDbEntity
  8
cut
  6
ByLayer
 62
  256
370
   -1
100
AcDbMText
 10
-101.5724085366586
 20
64.68292682931489
 30
0
 40
7
 41
17.11111111111111
 71
    6
 72
    1
  1
A-A
  7
standard
210
0
220
0
230
1
 50
90
 73
    2
 44
0.2
  0
MTEXT
  5
1C8
100
AcDbEntity
  8
cut
  6
ByLayer
 62
  256
370
   -1
100
AcDbMText
 10
-101.3197408537315
 20
158.1699695123091
 30
0
 40
7
 41
15.55555555555556
 71
    6
 72
    1
  1
B-B
  7
standard
210
0
220
0
230
1
 50
90
 73
    2
 44
0.2
  0
ENDBLK
  5
7A
330
78
100
AcDbEntity
  8
0
100
AcDbBlockEnd
  0
ENDSEC
  0
SECTION
  2
ENTITIES
  0
HATCH
  5
1C9
100
AcDbEntity
  8
cotes
  6
ByLayer
 62
  256
370
   -1
100
AcDbHatch
 10
0
 20
0
 30
0
210
0
220
0
230
1
  2
SOLID
 70
    1
 71
    0
 91
    1
 92
    0
 93
    3
 72
    1
 10
404.3047245377363
 20
184
 11
403.3047245377363
 21
184
 72
    1
 10
403.3047245377363
 20
184
 11
403.8047245377363
 21
185
 72
    1
 10
403.8047245377363
 20
185
 11
404.3047245377363
 21
184
 97
    0
 75
    0
 76
    1
 98
    0
  0
HATCH
  5
1CA
100
AcDbEntity
  8
cotes
  6
ByLayer
 62
  256
370
   -1
100
AcDbHatch
 10
0
 20
0
 30
0
210
0
220
0
230
1
  2
SOLID
 70
    1
 71
    0
 91
    1
 92
    0
 93
    3
 72
    1
 10
404.3047245377363
 20
176
 11
403.3047245377363
 21
176
 72
    1
 10
403.3047245377363
 20
176
 11
403.8047245377363
 21
175
 72
    1
 10
403.8047245377363
 20
175
 11
404.3047245377363
 21
176
 97
    0
 75
    0
 76
    1
 98
    0
  0
HATCH
  5
1CB
100
AcDbEntity
  8
cotes
  6
ByLayer
 62
  256
370
   -1
100
AcDbHatch
 10
0
 20
0
 30
0
210
0
220
0
230
1
  2
SOLID
 70
    1
 71
    0
 91
    1
 92
    0
 93
    3
 72
    1
 10
284.7302980421723
 20
165.5000000000003
 11
283.7302980421723
 21
165.5000000000003
 72
    1
 10
283.7302980421723
 20
165.5000000000003
 11
284.2302980421723
 21
167.5
 72
    1
 10
284.2302980421723
 20
167.5
 11
284.7302980421723
 21
165.5000000000003
 97
    0
 75
    0
 76
    1
 98
    0
  0
HATCH
  5
1CC
100
AcDbEntity
  8
cotes
  6
ByLayer
 62
  256
370
   -1
100
AcDbHatch
 10
0
 20
0
 30
0
210
0
220
0
230
1
  2
SOLID
 70
    1
 71
    0
 91
    1
 92
    0
 93
    3
 72
    1
 10
284.7302980421723
 20
194.5000000000006
 11
283.7302980421723
 21
194.5000000000006
 72
    1
 10
283.7302980421723
 20
194.5000000000006
 11
284.2302980421723
 21
192.5
 72
    1
 10
284.2302980421723
 20
192.5
 11
284.7302980421723
 21
194.5000000000006
 97
    0
 75
    0
 76
    1
 98
    0
  0
HATCH
  5
1CD
100
AcDbEntity
  8
hash
  6
ByLayer
 62
  256
370
   -1
100
AcDbHatch
 10
0
 20
0
 30
0
210
0
220
0
230
1
  2
iso03w100
 70
    0
 71
    0
 91
    1
 92
    0
 93
   16
 72
    1
 10
331
 20
176
 11
381
 21
176
 72
    1
 10
381
 20
176
 11
386
 21
176
 72
    1
 10
386
 20
176
 11
386
 21
145
 72
    1
 10
386
 20
145
 11
381
 21
145
 72
    1
 10
381
 20
145
 11
381
 21
167.5
 72
    1
 10
381
 20
167.5
 11
302
 21
167.5
 72
    1
 10
302
 20
167.5
 11
301
 21
168.5
 72
    1
 10
301
 20
168.5
 11
301
 21
191.5
 72
    1
 10
301
 20
191.5
 11
302
 21
192.5
 72
    1
 10
302
 20
192.5
 11
314.5505102572166
 21
192.5
 72
    2
 10
317
 20
193
 40
2.5
 50
191.5369590328148
 51
270.0000164682148
 73
    1
 72
    1
 10
317.0000007185614
 20
190.5000000000001
 11
339.75
 21
190.5
 72
    1
 10
339.75
 20
190.5
 11
339.75
 21
184
 72
    1
 10
339.75
 20
184
 11
331
 21
184
 72
    1
 10
331
 20
184
 11
328.6905989232414
 21
180
 72
    1
 10
328.6905989232414
 20
180
 11
331
 21
176
 97
    0
 75
    0
 76
    1
 52
0.7853981633974483
 41
0.1
 77
    0
 78
    0
 98
    0
  0
HATCH
  5
1CE
100
AcDbEntity
  8
hash
  6
ByLayer
 62
  256
370
   -1
100
AcDbHatch
 10
0
 20
0
 30
0
210
0
220
0
230
1
  2
iso03w100
 70
    0
 71
    0
 91
    1
 92
    0
 93
    9
 72
    1
 10
365.0000004471435
 20
190.5
 11
342.25
 21
190.5
 72
    1
 10
342.25
 20
190.5
 11
342.25
 21
184
 72
    1
 10
342.25
 20
184
 11
386
 21
184
 72
    1
 10
386
 20
184
 11
386
 21
190.5829289140866
 72
    1
 10
386
 20
190.5829289140866
 11
386
 21
201.4
 72
    1
 10
386
 20
201.4
 11
381
 21
201.4
 72
    1
 10
381
 20
201.4
 11
381
 21
192.5
 72
    1
 10
381
 20
192.5
 11
367.449489742783
 21
192.5
 72
    2
 10
365
 20
193
 40
2.5
 50
11.53695903281539
 51
89.99998975222472
 73
    0
 97
    0
 75
    0
 76
    1
 52
0.7853981633974483
 41
0.1
 77
    0
 78
    0
 98
    0
  0
HATCH
  5
1CF
100
AcDbEntity
  8
hash
  6
ByLayer
 62
  256
370
   -1
100
AcDbHatch
 10
0
 20
0
 30
0
210
0
220
0
230
1
  2
iso03w100
 70
    0
 71
    0
 91
    1
 92
    0
 93
    4
 72
    1
 10
386
 20
208.6
 11
386
 21
215
 72
    1
 10
386
 20
215
 11
381
 21
215
 72
    1
 10
381
 20
215
 11
381
 21
208.6
 72
    1
 10
381
 20
208.6
 11
386
 21
208.6
 97
    0
 75
    0
 76
    1
 52
0.7853981633974483
 41
0.1
 77
    0
 78
    0
 98
    0
  0
HATCH
  5
1D0
100
AcDbEntity
  8
cotes
  6
ByLayer
 62
  256
370
   -1
100
AcDbHatch
 10
0
 20
0
 30
0
210
0
220
0
230
1
  2
SOLID
 70
    1
 71
    0
 91
    1
 92
    0
 93
    3
 72
    1
 10
346.25
 20
228.2248266631569
 11
346.25
 21
230.2248266631569
 72
    1
 10
346.25
 20
230.2248266631569
 11
342.25
 21
229.2248266631569
 72
    1
 10
342.25
 20
229.2248266631569
 11
346.25
 21
228.2248266631569
 97
    0
 75
    0
 76
    1
 98
    0
  0
HATCH
  5
1D1
100
AcDbEntity
  8
cotes
  6
ByLayer
 62
  256
370
   -1
100
AcDbHatch
 10
0
 20
0
 30
0
210
0
220
0
230
1
  2
SOLID
 70
    1
 71
    0
 91
    1
 92
    0
 93
    3
 72
    1
 10
335.75
 20
228.2248266631569
 11
335.75
 21
230.2248266631569
 72
    1
 10
335.75
 20
230.2248266631569
 11
339.75
 21
229.2248266631569
 72
    1
 10
339.75
 20
229.2248266631569
 11
335.75
 21
228.2248266631569
 97
    0
 75
    0
 76
    1
 98
    0
  0
HATCH
  5
1D2
100
AcDbEntity
  8
cotes
  6
ByLayer
 62
  256
370
   -1
100
AcDbHatch
 10
0
 20
0
 30
0
210
0
220
0
230
1
  2
SOLID
 70
    1
 71
    0
 91
    1
 92
    0
 93
    3
 72
    1
 10
296.9913553580858
 20
228.2248266631569
 11
296.9913553580858
 21
230.2248266631569
 72
    1
 10
296.9913553580858
 20
230.2248266631569
 11
300.9913553580857
 21
229.2248266631569
 72
    1
 10
300.9913553580857
 20
229.2248266631569
 11
296.9913553580858
 21
228.2248266631569
 97
    0
 75
    0
 76
    1
 98
    0
  0
HATCH
  5
1D3
100
AcDbEntity
  8
cotes
  6
ByLayer
 62
  256
370
   -1
100
AcDbHatch
 10
0
 20
0
 30
0
210
0
220
0
230
1
  2
SOLID
 70
    1
 71
    0
 91
    1
 92
    0
 93
    3
 72
    1
 10
306.0156351302464
 20
228.2248266631569
 11
306.0156351302464
 21
230.2248266631569
 72
    1
 10
306.0156351302464
 20
230.2248266631569
 11
302.0156351302464
 21
229.2248266631569
 72
    1
 10
302.0156351302464
 20
229.2248266631569
 11
306.0156351302464
 21
228.2248266631569
 97
    0
 75
    0
 76
    1
 98
    0
  0
HATCH
  5
1D4
100
AcDbEntity
  8
cut
  6
ByLayer
 62
  256
370
   -1
100
AcDbHatch
 10
0
 20
0
 30
0
210
0
220
0
230
1
  2
SOLID
 70
    1
 71
    0
 91
    1
 92
    0
 93
    3
 72
    1
 10
344.9999999999998
 20
151.5
 11
344.9999999999998
 21
153.5
 72
    1
 10
344.9999999999998
 20
153.5
 11
341
 21
152.5
 72
    1
 10
341
 20
152.5
 11
344.9999999999998
 21
151.5
 97
    0
 75
    0
 76
    1
 98
    0
  0
HATCH
  5
1D5
100
AcDbEntity
  8
cut
  6
ByLayer
 62
  256
370
   -1
100
AcDbHatch
 10
0
 20
0
 30
0
210
0
220
0
230
1
  2
SOLID
 70
    1
 71
    0
 91
    1
 92
    0
 93
    3
 72
    1
 10
344.9999999999998
 20
207
 11
344.9999999999998
 21
209
 72
    1
 10
344.9999999999998
 20
209
 11
341
 21
208
 72
    1
 10
341
 20
208
 11
344.9999999999998
 21
207
 97
    0
 75
    0
 76
    1
 98
    0
  0
HATCH
  5
1D6
100
AcDbEntity
  8
cut
  6
ByLayer
 62
  256
370
   -1
100
AcDbHatch
 10
0
 20
0
 30
0
210
0
220
0
230
1
  2
SOLID
 70
    1
 71
    0
 91
    1
 92
    0
 93
    3
 72
    1
 10
248.0409393280914
 20
-280.0168644622755
 11
250.0409393280914
 21
-280.0168644622755
 72
    1
 10
250.0409393280914
 20
-280.0168644622755
 11
249.0409393280914
 21
-276.0168644622756
 72
    1
 10
249.0409393280914
 20
-276.0168644622756
 11
248.0409393280914
 21
-280.0168644622755
 97
    0
 75
    0
 76
    1
 98
    0
  0
HATCH
  5
1D7
100
AcDbEntity
  8
cut
  6
ByLayer
 62
  256
370
   -1
100
AcDbHatch
 10
0
 20
0
 30
0
210
0
220
0
230
1
  2
SOLID
 70
    1
 71
    0
 91
    1
 92
    0
 93
    3
 72
    1
 10
158.0409393280914
 20
-280.0168644622755
 11
160.0409393280914
 21
-280.0168644622755
 72
    1
 10
160.0409393280914
 20
-280.0168644622755
 11
159.0409393280914
 21
-276.0168644622756
 72
    1
 10
159.0409393280914
 20
-276.0168644622756
 11
158.0409393280914
 21
-280.0168644622755
 97
    0
 75
    0
 76
    1
 98
    0
  0
HATCH
  5
1D8
100
AcDbEntity
  8
cotes
  6
ByLayer
 62
  256
370
   -1
100
AcDbHatch
 10
0
 20
0
 30
0
210
0
220
0
230
1
  2
SOLID
 70
    1
 71
    0
 91
    1
 92
    0
 93
    3
 72
    1
 10
215.3530351758328
 20
-31.14150831924172
 11
215.6030351758328
 21
-30.70849561734943
 72
    1
 10
215.6030351758328
 20
-30.70849561734943
 11
214.6120097720483
 21
-30.42500196829565
 72
    1
 10
214.6120097720483
 20
-30.42500196829565
 11
215.3530351758328
 21
-31.14150831924172
 97
    0
 75
    0
 76
    1
 98
    0
  0
HATCH
  5
1D9
100
AcDbEntity
  8
cotes
  6
ByLayer
 62
  256
370
   -1
100
AcDbHatch
 10
0
 20
0
 30
0
210
0
220
0
230
1
  2
SOLID
 70
    1
 71
    0
 91
    1
 92
    0
 93
    3
 72
    1
 10
233.50428279102
 20
-272.4900294601905
 11
232.0077673723175
 21
-271.1632131196271
 72
    1
 10
232.0077673723175
 20
-271.1632131196271
 11
231.4292087411057
 21
-273.3231367086109
 72
    1
 10
231.4292087411057
 20
-273.3231367086109
 11
233.50428279102
 21
-272.4900294601905
 97
    0
 75
    0
 76
    1
 98
    0
  0
HATCH
  5
1DA
100
AcDbEntity
  8
hash
  6
ByLayer
 62
  256
370
   -1
100
AcDbHatch
 10
0
 20
0
 30
0
210
0
220
0
230
1
  2
iso03w100
 70
    0
 71
    0
 91
    1
 92
    0
 93
    8
 72
    1
 10
214.8758758186303
 20
-32.26686446227563
 11
214.5409393280914
 21
-32.26686446227563
 72
    1
 10
214.5409393280914
 20
-32.26686446227563
 11
208.8821685108502
 21
-32.26686446227563
 72
    2
 10
204.0409393280914
 20
-31.01686446227563
 40
5
 50
14.47751218593212
 51
345.5224878140716
 73
    0
 72
    1
 10
208.8821685108512
 20
-29.76686446227563
 11
214.5409393280914
 21
-29.76686446227563
 72
    1
 10
214.5409393280914
 20
-29.76686446227563
 11
214.8758758186303
 21
-29.76686446227563
 72
    2
 10
217.0409393280914
 20
-31.01686446227563
 40
2.5
 50
210.0000000000001
 51
253.0038351829481
 73
    0
 72
    2
 10
204.0409393280914
 20
-31.01686446227563
 40
12.5
 50
11.02660946683683
 51
348.9733905331632
 73
    1
 72
    2
 10
217.0409393280914
 20
-31.01686446227563
 40
2.5
 50
106.9961648170519
 51
149.9999999999903
 73
    0
 97
    0
 75
    0
 76
    1
 52
5.497787143782138
 41
0.1
 77
    0
 78
    0
 98
    0
  0
INSERT
  5
1DB
100
AcDbEntity
  8
0
  6
ByLayer
 62
  256
370
   -1
100
AcDbBlockReference
  2
hovairGaletTriangle
 10
0
 20
0
 30
0
 41
1
 42
1
 43
0
 50
0
 70
    1
 71
    1
 44
0
 45
0
  0
CIRCLE
  5
1DC
100
AcDbEntity
  8
structural
  6
ByLayer
 62
  256
370
   -1
100
AcDbCircle
 10
204.0409393280914
 20
-276.0168644622756
 40
35
  0
CIRCLE
  5
1DD
100
AcDbEntity
  8
structural
  6
ByLayer
 62
  256
370
   -1
100
AcDbCircle
 10
204.0409393280914
 20
-276.0168644622756
 40
12.5
  0
CIRCLE
  5
1DE
100
AcDbEntity
  8
structural
  6
ByLayer
 62
  256
370
   -1
100
AcDbCircle
 10
204.0409393280914
 20
-276.0168644622756
 40
11.5
  0
CIRCLE
  5
1DF
100
AcDbEntity
  8
structural
  6
ByLayer
 62
  256
370
   -1
100
AcDbCircle
 10
229.0409393280914
 20
-276.0168644622756
 40
3.6
  0
LINE
  5
1E0
100
AcDbEntity
  8
center
  6
ByLayer
 62
  256
370
   -1
100
AcDbLine
 10
229.0409393280914
 20
-299.6168644622757
 11
229.0409393280914
 21
-252.4168644622756
  0
LINE
  5
1E1
100
AcDbEntity
  8
center
  6
ByLayer
 62
  256
370
   -1
100
AcDbLine
 10
161.5409393280914
 20
-276.0168644622756
 11
246.5409393280914
 21
-276.0168644622756
  0
ARC
  5
1E2
100
AcDbEntity
  8
hidden
  6
ByLayer
 62
  256
370
   -1
100
AcDbCircle
 10
204.0409393280914
 20
-276.0168644622756
 40
4
100
AcDbArc
 50
0
 51
0
  0
ARC
  5
1E3
100
AcDbEntity
  8
hidden
  6
ByLayer
 62
  256
370
   -1
100
AcDbCircle
 10
204.0409393280914
 20
-276.0168644622756
 40
5
100
AcDbArc
 50
90.00000000000009
 51
0
  0
LINE
  5
1E4
100
AcDbEntity
  8
center
  6
ByLayer
 62
  256
370
   -1
100
AcDbLine
 10
171.5409393280914
 20
-31.01686446227563
 11
236.5409393280914
 21
-31.01686446227563
  0
LINE
  5
1E5
100
AcDbEntity
  8
center
  6
ByLayer
 62
  256
370
   -1
100
AcDbLine
 10
204.0409393280914
 20
-63.51686446227563
 11
204.0409393280914
 21
1.483135537724365
  0
LINE
  5
1E6
100
AcDbEntity
  8
structural
  6
ByLayer
 62
  256
370
   -1
100
AcDbLine
 10
214.5409393280914
 20
-29.76686446227563
 11
214.8758758186303
 21
-29.76686446227563
  0
LINE
  5
1E7
100
AcDbEntity
  8
structural
  6
ByLayer
 62
  256
370
   -1
100
AcDbLine
 10
214.5409393280914
 20
-32.26686446227563
 11
214.8758758186303
 21
-32.26686446227563
  0
LINE
  5
1E8
100
AcDbEntity
  8
structural
  6
ByLayer
 62
  256
370
   -1
100
AcDbLine
 10
208.8821685108502
 20
-32.26686446227563
 11
214.5409393280914
 21
-32.26686446227563
  0
LINE
  5
1E9
100
AcDbEntity
  8
structural
  6
ByLayer
 62
  256
370
   -1
100
AcDbLine
 10
208.8821685108512
 20
-29.76686446227563
 11
214.5409393280914
 21
-29.76686446227563
  0
LINE
  5
1EA
100
AcDbEntity
  8
hidden
  6
ByLayer
 62
  256
370
   -1
100
AcDbLine
 10
208.8821685108509
 20
-277.2668644622756
 11
207.8406103664839
 21
-277.2668644622756
  0
LINE
  5
1EB
100
AcDbEntity
  8
hidden
  6
ByLayer
 62
  256
370
   -1
100
AcDbLine
 10
208.8821685108512
 20
-274.7668644622756
 11
207.8406103664839
 21
-274.7668644622756
  0
LINE
  5
1EC
100
AcDbEntity
  8
hidden
  6
ByLayer
 62
  256
370
   -1
100
AcDbLine
 10
214.5409393280914
 20
-274.7668644622756
 11
214.8758758186303
 21
-274.7668644622756
  0
LINE
  5
1ED
100
AcDbEntity
  8
hidden
  6
ByLayer
 62
  256
370
   -1
100
AcDbLine
 10
214.5409393280914
 20
-277.2668644622756
 11
214.8758758186303
 21
-277.2668644622756
  0
ARC
  5
1EE
100
AcDbEntity
  8
hidden
  6
ByLayer
 62
  256
370
   -1
100
AcDbCircle
 10
217.0409393280914
 20
-276.0168644622756
 40
2.5
100
AcDbArc
 50
106.9961648170519
 51
253.0038351829481
  0
LINE
  5
1EF
100
AcDbEntity
  8
hidden
  6
ByLayer
 62
  256
370
   -1
100
AcDbLine
 10
208.8821685108502
 20
-277.2668644622756
 11
214.5409393280914
 21
-277.2668644622756
  0
LINE
  5
1F0
100
AcDbEntity
  8
hidden
  6
ByLayer
 62
  256
370
   -1
100
AcDbLine
 10
208.8821685108512
 20
-274.7668644622756
 11
214.5409393280914
 21
-274.7668644622756
  0
ARC
  5
1F1
100
AcDbEntity
  8
structural
  6
ByLayer
 62
  256
370
   -1
100
AcDbCircle
 10
204.0409393280914
 20
-31.01686446227563
 40
5
100
AcDbArc
 50
345.5224878140679
 51
14.47751218592846
  0
ARC
  5
1F2
100
AcDbEntity
  8
structural
  6
ByLayer
 62
  256
370
   -1
100
AcDbCircle
 10
204.0409393280914
 20
-31.01686446227563
 40
5
100
AcDbArc
 50
14.47751218592846
 51
345.5224878140679
  0
ARC
  5
1F3
100
AcDbEntity
  8
structural
  6
ByLayer
 62
  256
370
   -1
100
AcDbCircle
 10
217.0409393280914
 20
-31.01686446227563
 40
2.5
100
AcDbArc
 50
106.9961648170519
 51
149.9999999999999
  0
ARC
  5
1F4
100
AcDbEntity
  8
structural
  6
ByLayer
 62
  256
370
   -1
100
AcDbCircle
 10
217.0409393280914
 20
-31.01686446227563
 40
2.5
100
AcDbArc
 50
149.9999999999999
 51
210.0000000000097
  0
ARC
  5
1F5
100
AcDbEntity
  8
structural
  6
ByLayer
 62
  256
370
   -1
100
AcDbCircle
 10
217.0409393280914
 20
-31.01686446227563
 40
2.5
100
AcDbArc
 50
210.0000000000097
 51
253.0038351829481
  0
ARC
  5
1F6
100
AcDbEntity
  8
structural
  6
ByLayer
 62
  256
370
   -1
100
AcDbCircle
 10
204.0409393280914
 20
-31.01686446227563
 40
12.5
100
AcDbArc
 50
348.9733905331632
 51
11.02660946683681
  0
ARC
  5
1F7
100
AcDbEntity
  8
structural
  6
ByLayer
 62
  256
370
   -1
100
AcDbCircle
 10
204.0409393280914
 20
-31.01686446227563
 40
12.5
100
AcDbArc
 50
11.02660946683683
 51
348.9733905331632
  0
POINT
  5
1F8
100
AcDbEntity
  8
cotes
  6
ByLayer
 62
  256
370
   -1
100
AcDbPoint
 10
232.7560250816687
 20
-271.8266212899088
  0
LINE
  5
1F9
100
AcDbEntity
  8
cotes
  6
ByLayer
 62
  256
370
   -1
100
AcDbLine
 10
233.50428279102
 20
-272.4900294601905
 11
232.0077673723175
 21
-271.1632131196271
  0
LINE
  5
1FA
100
AcDbEntity
  8
cotes
  6
ByLayer
 62
  256
370
   -1
100
AcDbLine
 10
231.4292087411057
 20
-273.3231367086109
 11
232.0077673723175
 21
-271.1632131196271
  0
LINE
  5
1FB
100
AcDbEntity
  8
cotes
  6
ByLayer
 62
  256
370
   -1
100
AcDbLine
 10
231.4292087411057
 20
-273.3231367086109
 11
233.50428279102
 21
-272.4900294601905
  0
LINE
  5
1FC
100
AcDbEntity
  8
cotes
  6
ByLayer
 62
  256
370
   -1
100
AcDbLine
 10
232.7560250816687
 20
-271.8266212899088
 11
253.7200228782041
 21
-248.1813397381009
  0
LINE
  5
1FD
100
AcDbEntity
  8
cotes
  6
ByLayer
 62
  256
370
   -1
100
AcDbLine
 10
253.7200228782041
 20
-248.1813397381009
 11
273.7200228782041
 21
-248.1813397381009
  0
MTEXT
  5
1FE
100
AcDbEntity
  8
cotes
  6
ByLayer
 62
  256
370
   -1
100
AcDbMText
 10
253.7200228782041
 20
-248.1813397381009
 30
0
 40
5
 41
13.33333333333333
 71
    7
 72
    1
  1
7.2\P
  7
standard
210
0
220
0
230
1
 50
0
 73
    2
 44
0.5
  0
DIMENSION
  5
1FF
100
AcDbEntity
  8
cotes
  6
ByLayer
 62
  256
370
   -1
100
AcDbDimension
  2
*D1
 10
229.0409393280914
 20
-331.0168644622756
 30
0
 11
216.5409393280914
 21
-329.1418644622756
 31
0
 70
   32
 71
    5
  3
Standard
 53
0
210
0
220
0
230
1
100
AcDbAlignedDimension
 13
204.0409393280914
 23
-276.0168644622756
 33
0
 14
229.0409393280914
 24
-276.0168644622756
 34
0
100
AcDbRotatedDimension
  0
DIMENSION
  5
200
100
AcDbEntity
  8
cotes
  6
ByLayer
 62
  256
370
   -1
100
AcDbDimension
  2
*D2
 10
217.0409393280914
 20
-1.016140477337842
 30
0
 11
210.5409393280914
 21
0.858859522662158
 31
0
 70
   32
 71
    5
 72
    0
  3
Standard
 53
0
210
0
220
0
230
1
100
AcDbAlignedDimension
 13
204.0409393280914
 23
-31.01686446227563
 33
0
 14
217.0409393280914
 24
-31.01686446227563
 34
0
100
AcDbRotatedDimension
  0
LINE
  5
201
100
AcDbEntity
  8
cotes
  6
ByLayer
 62
  256
370
   -1
100
AcDbLine
 10
215.3530351758328
 20
-31.14150831924172
 11
215.6030351758328
 21
-30.70849561734943
  0
LINE
  5
202
100
AcDbEntity
  8
cotes
  6
ByLayer
 62
  256
370
   -1
100
AcDbLine
 10
214.6120097720483
 20
-30.42500196829565
 11
215.3530351758328
 21
-31.14150831924172
  0
LINE
  5
203
100
AcDbEntity
  8
cotes
  6
ByLayer
 62
  256
370
   -1
100
AcDbLine
 10
214.6120097720483
 20
-30.42500196829565
 11
215.6030351758328
 21
-30.70849561734943
  0
LINE
  5
204
100
AcDbEntity
  8
cotes
  6
ByLayer
 62
  256
370
   -1
100
AcDbLine
 10
222.4079730334413
 20
-34.92600345585325
 11
242.4079730334413
 21
-34.92600345585325
  0
MTEXT
  5
205
100
AcDbEntity
  8
cotes
  6
ByLayer
 62
  256
370
   -1
100
AcDbMText
 10
222.4079730334413
 20
-34.92600345585325
 30
0
 40
5
 41
15.97222222222253
 71
    7
 72
    1
  1
R 2.5\P\P
  7
standard
210
0
220
0
230
1
 50
0
 73
    2
 44
0.2
  0
LINE
  5
206
100
AcDbEntity
  8
cotes
  6
ByLayer
 62
  256
370
   -1
100
AcDbLine
 10
215.4780351758327
 20
-30.92500196829565
 11
222.4079730334413
 21
-34.92600345585325
  0
LINE
  5
207
100
AcDbEntity
  8
cut
  6
ByLayer
 62
  256
370
   -1
100
AcDbLine
 10
161.5409393280914
 20
-276.0168644622756
 11
156.5409393280914
 21
-276.0168644622756
  0
LINE
  5
208
100
AcDbEntity
  8
cut
  6
ByLayer
 62
  256
370
   -1
100
AcDbLine
 10
246.5409393280914
 20
-276.0168644622756
 11
251.5409393280914
 21
-276.0168644622756
  0
LINE
  5
209
100
AcDbEntity
  8
cotes
  6
ByLayer
 62
  256
370
   -1
100
AcDbLine
 10
158.0409393280914
 20
-280.0168644622755
 11
160.0409393280914
 21
-280.0168644622755
  0
LINE
  5
20A
100
AcDbEntity
  8
cotes
  6
ByLayer
 62
  256
370
   -1
100
AcDbLine
 10
158.0409393280914
 20
-280.0168644622755
 11
159.0409393280914
 21
-276.0168644622756
  0
LINE
  5
20B
100
AcDbEntity
  8
cotes
  6
ByLayer
 62
  256
370
   -1
100
AcDbLine
 10
159.0409393280914
 20
-276.0168644622756
 11
160.0409393280914
 21
-280.0168644622755
  0
LINE
  5
20C
100
AcDbEntity
  8
cotes
  6
ByLayer
 62
  256
370
   -1
100
AcDbLine
 10
159.0409393280914
 20
-294.1633216302337
 11
159.0409393280914
 21
-280.0168644622755
  0
LINE
  5
20D
100
AcDbEntity
  8
cotes
  6
ByLayer
 62
  256
370
   -1
100
AcDbLine
 10
248.0409393280914
 20
-280.0168644622755
 11
250.0409393280914
 21
-280.0168644622755
  0
LINE
  5
20E
100
AcDbEntity
  8
cotes
  6
ByLayer
 62
  256
370
   -1
100
AcDbLine
 10
248.0409393280914
 20
-280.0168644622755
 11
249.0409393280914
 21
-276.0168644622756
  0
LINE
  5
20F
100
AcDbEntity
  8
cotes
  6
ByLayer
 62
  256
370
   -1
100
AcDbLine
 10
249.0409393280914
 20
-276.0168644622756
 11
250.0409393280914
 21
-280.0168644622755
  0
LINE
  5
210
100
AcDbEntity
  8
cotes
  6
ByLayer
 62
  256
370
   -1
100
AcDbLine
 10
249.0409393280914
 20
-294.1633216302337
 11
249.0409393280914
 21
-280.0168644622755
  0
MTEXT
  5
211
100
AcDbEntity
  8
cut
  6
ByLayer
 62
  256
370
   -1
100
AcDbMText
 10
249.0409393280914
 20
-287.0900930462545
 30
0
 40
5
 41
3.333333333333333
 71
    9
 72
    1
  1
A\P
  7
standard
210
0
220
0
230
1
 50
90
 73
    2
 44
0.2
  0
MTEXT
  5
212
100
AcDbEntity
  8
cut
  6
ByLayer
 62
  256
370
   -1
100
AcDbMText
 10
159.0409393280914
 20
-287.0900930462545
 30
0
 40
5
 41
3.333333333333333
 71
    9
 72
    1
  1
A\P
  7
standard
210
0
220
0
230
1
 50
90
 73
    2
 44
0.2
  0
MTEXT
  5
213
100
AcDbEntity
  8
cut
  6
ByLayer
 62
  256
370
   -1
100
AcDbMText
 10
102.7211984743599
 20
-22.84689494996653
 30
0
 40
7
 41
15.55555555555556
 71
    6
 72
    1
  1
B-B
  7
standard
210
0
220
0
230
1
 50
90
 73
    2
 44
0.2
  0
MTEXT
  5
214
100
AcDbEntity
  8
cut
  6
ByLayer
 62
  256
370
   -1
100
AcDbMText
 10
139.3580124987765
 20
-282.5892729989342
 30
0
 40
7
 41
17.11111111111111
 71
    6
 72
    1
  1
A-A
  7
standard
210
0
220
0
230
1
 50
180
 73
    2
 44
0.2
  0
LINE
  5
215
100
AcDbEntity
  8
center
  6
ByLayer
 62
  256
370
   -1
100
AcDbLine
 10
406
 20
180
 11
281
 21
180
  0
LINE
  5
216
100
AcDbEntity
  8
center
  6
ByLayer
 62
  256
370
   -1
100
AcDbLine
 10
341
 20
160
 11
341
 21
210.5
  0
DIMENSION
  5
217
100
AcDbEntity
  8
cotes
  6
ByLayer
 62
  256
370
   -1
100
AcDbDimension
  2
*D3
 10
422.25714520467
 20
215
 30
0
 11
420.38214520467
 21
180
 31
0
 70
   32
 71
    5
  3
Standard
 53
0
210
0
220
0
230
1
100
AcDbAlignedDimension
 13
386
 23
145
 33
0
 14
386
 24
215
 34
0
 50
90
100
AcDbRotatedDimension
  0
LINE
  5
218
100
AcDbEntity
  8
cotes
  6
ByLayer
 62
  256
370
   -1
100
AcDbLine
 10
386
 20
175
 11
406
 21
175
  0
LINE
  5
219
100
AcDbEntity
  8
cotes
  6
ByLayer
 62
  256
370
   -1
100
AcDbLine
 10
386
 20
185
 11
406
 21
185
  0
LINE
  5
21A
100
AcDbEntity
  8
cotes
  6
ByLayer
 62
  256
370
   -1
100
AcDbLine
 10
404.3047245377363
 20
176
 11
403.3047245377363
 21
176
  0
LINE
  5
21B
100
AcDbEntity
  8
cotes
  6
ByLayer
 62
  256
370
   -1
100
AcDbLine
 10
404.3047245377363
 20
184
 11
403.3047245377363
 21
184
  0
LINE
  5
21C
100
AcDbEntity
  8
cotes
  6
ByLayer
 62
  256
370
   -1
100
AcDbLine
 10
403.8047245377363
 20
175
 11
403.3047245377363
 21
176
  0
LINE
  5
21D
100
AcDbEntity
  8
cotes
  6
ByLayer
 62
  256
370
   -1
100
AcDbLine
 10
403.8047245377363
 20
175
 11
404.3047245377363
 21
176
  0
LINE
  5
21E
100
AcDbEntity
  8
cotes
  6
ByLayer
 62
  256
370
   -1
100
AcDbLine
 10
403.8047245377363
 20
185
 11
403.3047245377363
 21
184
  0
LINE
  5
21F
100
AcDbEntity
  8
cotes
  6
ByLayer
 62
  256
370
   -1
100
AcDbLine
 10
403.8047245377363
 20
185
 11
404.3047245377363
 21
184
  0
LINE
  5
220
100
AcDbEntity
  8
cotes
  6
ByLayer
 62
  256
370
   -1
100
AcDbLine
 10
403.8047245377363
 20
176
 11
403.8047245377363
 21
184
  0
LINE
  5
221
100
AcDbEntity
  8
cotes
  6
ByLayer
 62
  256
370
   -1
100
AcDbLine
 10
403.8047245377363
 20
175
 11
403.8047245377363
 21
155
  0
MTEXT
  5
222
100
AcDbEntity
  8
cotes
  6
ByLayer
 62
  256
370
   -1
100
AcDbMText
 10
403.8047245377363
 20
155
 30
0
 40
5
 41
10
 71
    7
 72
    1
  1
M10\P
  7
standard
210
0
220
0
230
1
 50
90
 73
    2
 44
0.5
  0
DIMENSION
  5
223
100
AcDbEntity
  8
cotes
  6
ByLayer
 62
  256
370
   -1
100
AcDbDimension
  2
*D4
 10
356
 20
134.8887074457554
 30
0
 11
371
 21
136.7637074457554
 31
0
 70
   32
 71
    5
  3
Standard
 53
0
210
0
220
0
230
1
100
AcDbAlignedDimension
 13
386
 23
145
 33
0
 14
356
 24
176
 34
0
 50
180
100
AcDbRotatedDimension
  0
DIMENSION
  5
224
100
AcDbEntity
  8
cotes
  6
ByLayer
 62
  256
370
   -1
100
AcDbDimension
  2
*D5
 10
341
 20
117.555304395356
 30
0
 11
363.5
 21
119.430304395356
 31
0
 70
   32
 71
    5
  3
Standard
 53
0
210
0
220
0
230
1
100
AcDbAlignedDimension
 13
386
 23
145
 33
0
 14
341
 24
180
 34
0
 50
180
100
AcDbRotatedDimension
  0
DIMENSION
  5
225
100
AcDbEntity
  8
cotes
  6
ByLayer
 62
  256
370
   -1
100
AcDbDimension
  2
*D6
 10
331
 20
100.2219013449566
 30
0
 11
358.5
 21
102.0969013449566
 31
0
 70
   32
 71
    5
  3
Standard
 53
0
210
0
220
0
230
1
100
AcDbAlignedDimension
 13
386
 23
145
 33
0
 14
331
 24
176
 34
0
 50
180
100
AcDbRotatedDimension
  0
LINE
  5
226
100
AcDbEntity
  8
cotes
  6
ByLayer
 62
  256
370
   -1
100
AcDbLine
 10
301
 20
167.5
 11
281
 21
167.5
  0
LINE
  5
227
100
AcDbEntity
  8
cotes
  6
ByLayer
 62
  256
370
   -1
100
AcDbLine
 10
301
 20
192.5
 11
281
 21
192.5
  0
LINE
  5
228
100
AcDbEntity
  8
cotes
  6
ByLayer
 62
  256
370
   -1
100
AcDbLine
 10
284.7302980421723
 20
165.5000000000003
 11
283.7302980421723
 21
165.5000000000003
  0
LINE
  5
229
100
AcDbEntity
  8
cotes
  6
ByLayer
 62
  256
370
   -1
100
AcDbLine
 10
284.7302980421723
 20
194.5000000000006
 11
283.7302980421723
 21
194.5000000000006
  0
LINE
  5
22A
100
AcDbEntity
  8
cotes
  6
ByLayer
 62
  256
370
   -1
100
AcDbLine
 10
283.7302980421723
 20
165.5000000000003
 11
284.2302980421723
 21
167.5
  0
LINE
  5
22B
100
AcDbEntity
  8
cotes
  6
ByLayer
 62
  256
370
   -1
100
AcDbLine
 10
284.2302980421723
 20
167.5
 11
284.7302980421723
 21
165.5000000000003
  0
LINE
  5
22C
100
AcDbEntity
  8
cotes
  6
ByLayer
 62
  256
370
   -1
100
AcDbLine
 10
283.7302980421723
 20
194.5000000000006
 11
284.2302980421723
 21
192.5
  0
LINE
  5
22D
100
AcDbEntity
  8
cotes
  6
ByLayer
 62
  256
370
   -1
100
AcDbLine
 10
284.2302980421723
 20
192.5
 11
284.7302980421723
 21
194.5000000000006
  0
LINE
  5
22E
100
AcDbEntity
  8
cotes
  6
ByLayer
 62
  256
370
   -1
100
AcDbLine
 10
284.2302980421723
 20
165.5000000000003
 11
284.2302980421723
 21
157.5
  0
LINE
  5
22F
100
AcDbEntity
  8
cotes
  6
ByLayer
 62
  256
370
   -1
100
AcDbLine
 10
284.2302980421723
 20
202.5
 11
284.2302980421723
 21
194.5000000000006
  0
LINE
  5
230
100
AcDbEntity
  8
cotes
  6
ByLayer
 62
  256
370
   -1
100
AcDbLine
 10
284.2302980421723
 20
192.5
 11
284.2302980421723
 21
167.5
  0
MTEXT
  5
231
100
AcDbEntity
  8
cotes
  6
ByLayer
 62
  256
370
   -1
100
AcDbMText
 10
284.2302980421723
 20
167.5
 30
0
 40
5
 41
11.66666666666698
 71
    7
 72
    1
  1
25\P
  7
standard
210
0
220
0
230
1
 50
90
 73
    2
 44
0.5
  0
MTEXT
  5
232
100
AcDbEntity
  8
cotes
  6
ByLayer
 62
  256
370
   -1
100
AcDbMText
 10
281
 20
180
 30
0
 40
2.5
 41
7.777777777777933
 71
    7
 72
    1
  1
 0\P-0.05
  7
standard
210
0
220
0
230
1
 50
90
 73
    2
 44
1
  0
DIMENSION
  5
233
100
AcDbEntity
  8
cotes
  6
ByLayer
 62
  256
370
   -1
100
AcDbDimension
  2
*D7
 10
381
 20
229.2344403240573
 30
0
 11
383.5
 21
231.1094403240573
 31
0
 70
   32
 71
    5
  3
Standard
 53
0
210
0
220
0
230
1
100
AcDbAlignedDimension
 13
386
 23
215
 33
0
 14
381
 24
215
 34
0
 50
180
100
AcDbRotatedDimension
  0
DIMENSION
  5
234
100
AcDbEntity
  8
cotes
  6
ByLayer
 62
  256
370
   -1
100
AcDbDimension
  2
*D8
 10
301
 20
258.5696505227502
 30
0
 11
343.5
 21
260.4446505227502
 31
0
 70
   32
 71
    5
  3
Standard
 53
0
210
0
220
0
230
1
100
AcDbAlignedDimension
 13
386
 23
215
 33
0
 14
301
 24
191.5
 34
0
 50
180
100
AcDbRotatedDimension
  0
POINT
  5
235
100
AcDbEntity
  8
structural
  6
ByLayer
 62
  256
370
   -1
100
AcDbPoint
 10
386
 20
184
  0
DIMENSION
  5
236
100
AcDbEntity
  8
cotes
  6
ByLayer
 62
  256
370
   -1
100
AcDbDimension
  2
*D9
 10
317
 20
245.1882621951635
 30
0
 11
341
 21
247.0632621951635
 31
0
 70
   32
 71
    5
 72
    0
  3
Standard
 53
0
210
0
220
0
230
1
100
AcDbAlignedDimension
 13
365
 23
193
 33
0
 14
317
 24
193
 34
0
 50
180
100
AcDbRotatedDimension
  0
DIMENSION
  5
237
100
AcDbEntity
  8
cotes
  6
ByLayer
 62
  256
370
   -1
100
AcDbDimension
  2
*D10
 10
365
 20
245.210225612373
 30
0
 11
375.5
 21
247.085225612373
 31
0
 70
   32
 71
    5
 72
    0
  3
Standard
 53
0
210
0
220
0
230
1
100
AcDbAlignedDimension
 13
386
 23
215
 33
0
 14
365
 24
193
 34
0
 50
180
100
AcDbRotatedDimension
  0
LINE
  5
238
100
AcDbEntity
  8
cotes
  6
ByLayer
 62
  256
370
   -1
100
AcDbLine
 10
335.75
 20
228.2248266631569
 11
335.75
 21
230.2248266631569
  0
LINE
  5
239
100
AcDbEntity
  8
cotes
  6
ByLayer
 62
  256
370
   -1
100
AcDbLine
 10
346.25
 20
228.2248266631569
 11
346.25
 21
230.2248266631569
  0
LINE
  5
23A
100
AcDbEntity
  8
cotes
  6
ByLayer
 62
  256
370
   -1
100
AcDbLine
 10
335.75
 20
228.2248266631569
 11
339.75
 21
229.2248266631569
  0
LINE
  5
23B
100
AcDbEntity
  8
cotes
  6
ByLayer
 62
  256
370
   -1
100
AcDbLine
 10
339.75
 20
229.2248266631569
 11
335.75
 21
230.2248266631569
  0
LINE
  5
23C
100
AcDbEntity
  8
cotes
  6
ByLayer
 62
  256
370
   -1
100
AcDbLine
 10
346.25
 20
228.2248266631569
 11
342.25
 21
229.2248266631569
  0
LINE
  5
23D
100
AcDbEntity
  8
cotes
  6
ByLayer
 62
  256
370
   -1
100
AcDbLine
 10
342.25
 20
229.2248266631569
 11
346.25
 21
230.2248266631569
  0
LINE
  5
23E
100
AcDbEntity
  8
cotes
  6
ByLayer
 62
  256
370
   -1
100
AcDbLine
 10
339.75
 20
194.534552579965
 11
339.75
 21
232.3243892878737
  0
LINE
  5
23F
100
AcDbEntity
  8
cotes
  6
ByLayer
 62
  256
370
   -1
100
AcDbLine
 10
342.25
 20
194.534552579965
 11
342.25
 21
232.3243892878737
  0
MTEXT
  5
240
100
AcDbEntity
  8
cotes
  6
ByLayer
 62
  256
370
   -1
100
AcDbMText
 10
360.396457167958
 20
229.2248266631569
 30
0
 40
5
 41
13.33333333333364
 71
    7
 72
    1
  1
2.5\P
  7
standard
210
0
220
0
230
1
 50
180
 73
    2
 44
0.2
  0
LINE
  5
241
100
AcDbEntity
  8
cotes
  6
ByLayer
 62
  256
370
   -1
100
AcDbLine
 10
302
 20
193.0625
 11
302
 21
261.6946505227502
  0
LINE
  5
242
100
AcDbEntity
  8
cotes
  6
ByLayer
 62
  256
370
   -1
100
AcDbLine
 10
360.396457167958
 20
229.2248266631569
 11
346.25
 21
229.2248266631569
  0
LINE
  5
243
100
AcDbEntity
  8
cotes
  6
ByLayer
 62
  256
370
   -1
100
AcDbLine
 10
335.75
 20
229.2248266631569
 11
333.4247860929825
 21
229.2248266631569
  0
LINE
  5
244
100
AcDbEntity
  8
cotes
  6
ByLayer
 62
  256
370
   -1
100
AcDbLine
 10
342.25
 20
229.2248266631569
 11
339.75
 21
229.2248266631569
  0
LINE
  5
245
100
AcDbEntity
  8
cotes
  6
ByLayer
 62
  256
370
   -1
100
AcDbLine
 10
296.9913553580858
 20
228.2248266631569
 11
296.9913553580858
 21
230.2248266631569
  0
LINE
  5
246
100
AcDbEntity
  8
cotes
  6
ByLayer
 62
  256
370
   -1
100
AcDbLine
 10
296.9913553580858
 20
228.2248266631569
 11
300.9913553580857
 21
229.2248266631569
  0
LINE
  5
247
100
AcDbEntity
  8
cotes
  6
ByLayer
 62
  256
370
   -1
100
AcDbLine
 10
300.9913553580857
 20
229.2248266631569
 11
296.9913553580858
 21
230.2248266631569
  0
LINE
  5
248
100
AcDbEntity
  8
cotes
  6
ByLayer
 62
  256
370
   -1
100
AcDbLine
 10
306.0156351302464
 20
228.2248266631569
 11
306.0156351302464
 21
230.2248266631569
  0
LINE
  5
249
100
AcDbEntity
  8
cotes
  6
ByLayer
 62
  256
370
   -1
100
AcDbLine
 10
306.0156351302464
 20
228.2248266631569
 11
302.0156351302464
 21
229.2248266631569
  0
LINE
  5
24A
100
AcDbEntity
  8
cotes
  6
ByLayer
 62
  256
370
   -1
100
AcDbLine
 10
302.0156351302464
 20
229.2248266631569
 11
306.0156351302464
 21
230.2248266631569
  0
LINE
  5
24B
100
AcDbEntity
  8
cotes
  6
ByLayer
 62
  256
370
   -1
100
AcDbLine
 10
308.3868613302612
 20
229.2248266631569
 11
306.0616474232436
 21
229.2248266631569
  0
LINE
  5
24C
100
AcDbEntity
  8
cotes
  6
ByLayer
 62
  256
370
   -1
100
AcDbLine
 10
300.9913553580857
 20
229.2248266631569
 11
302.0156351302464
 21
229.2248266631569
  0
MTEXT
  5
24D
100
AcDbEntity
  8
cotes
  6
ByLayer
 62
  256
370
   -1
100
AcDbMText
 10
296.9913553580858
 20
229.2248266631569
 30
0
 40
5
 41
24.16666666666698
 71
    7
 72
    1
  1
1 x 45%%D\P
  7
standard
210
0
220
0
230
1
 50
180
 73
    2
 44
0.2
  0
LINE
  5
24E
100
AcDbEntity
  8
cotes
  6
ByLayer
 62
  256
370
   -1
100
AcDbLine
 10
296.9913553580858
 20
229.2248266631569
 11
274.6661414510681
 21
229.2248266631569
  0
LINE
  5
24F
100
AcDbEntity
  8
cut
  6
ByLayer
 62
  256
370
   -1
100
AcDbLine
 10
341
 20
210.5
 11
341
 21
205.5
  0
LINE
  5
250
100
AcDbEntity
  8
cut
  6
ByLayer
 62
  256
370
   -1
100
AcDbLine
 10
341
 20
155
 11
341
 21
150
  0
LINE
  5
251
100
AcDbEntity
  8
cotes
  6
ByLayer
 62
  256
370
   -1
100
AcDbLine
 10
344.9999999999998
 20
207
 11
344.9999999999998
 21
209
  0
LINE
  5
252
100
AcDbEntity
  8
cotes
  6
ByLayer
 62
  256
370
   -1
100
AcDbLine
 10
344.9999999999998
 20
207
 11
341
 21
208
  0
LINE
  5
253
100
AcDbEntity
  8
cotes
  6
ByLayer
 62
  256
370
   -1
100
AcDbLine
 10
341
 20
208
 11
344.9999999999998
 21
209
  0
LINE
  5
254
100
AcDbEntity
  8
cotes
  6
ByLayer
 62
  256
370
   -1
100
AcDbLine
 10
359.146457167958
 20
208
 11
344.9999999999998
 21
208
  0
LINE
  5
255
100
AcDbEntity
  8
cotes
  6
ByLayer
 62
  256
370
   -1
100
AcDbLine
 10
344.9999999999998
 20
151.5
 11
344.9999999999998
 21
153.5
  0
LINE
  5
256
100
AcDbEntity
  8
cotes
  6
ByLayer
 62
  256
370
   -1
100
AcDbLine
 10
344.9999999999998
 20
151.5
 11
341
 21
152.5
  0
LINE
  5
257
100
AcDbEntity
  8
cotes
  6
ByLayer
 62
  256
370
   -1
100
AcDbLine
 10
341
 20
152.5
 11
344.9999999999998
 21
153.5
  0
LINE
  5
258
100
AcDbEntity
  8
cotes
  6
ByLayer
 62
  256
370
   -1
100
AcDbLine
 10
359.146457167958
 20
152.5
 11
344.9999999999998
 21
152.5
  0
MTEXT
  5
259
100
AcDbEntity
  8
cut
  6
ByLayer
 62
  256
370
   -1
100
AcDbMText
 10
352.073228583979
 20
152.5
 30
0
 40
5
 41
2.777777777777778
 71
    9
 72
    1
  1
B\P
  7
standard
210
0
220
0
230
1
 50
180
 73
    2
 44
0.2
  0
MTEXT
  5
25A
100
AcDbEntity
  8
cut
  6
ByLayer
 62
  256
370
   -1
100
AcDbMText
 10
352.073228583979
 20
208
 30
0
 40
5
 41
2.777777777777778
 71
    9
 72
    1
  1
B\P
  7
standard
210
0
220
0
230
1
 50
180
 73
    2
 44
0.2
  0
POINT
  5
25B
100
AcDbEntity
  8
construction
  6
ByLayer
 62
  256
370
   -1
100
AcDbPoint
 10
381
 20
180
  0
LINE
  5
25C
100
AcDbEntity
  8
center
  6
ByLayer
 62
  256
370
   -1
100
AcDbLine
 10
361
 20
158.2494453537847
 11
406
 21
158.2494453537847
  0
LINE
  5
25D
100
AcDbEntity
  8
axe
  6
ByLayer
 62
  256
370
   -1
100
AcDbLine
 10
386
 20
145
 11
386
 21
176
  0
LINE
  5
25E
100
AcDbEntity
  8
axe
  6
ByLayer
 62
  256
370
   -1
100
AcDbLine
 10
386
 20
215
 11
381
 21
215
  0
LINE
  5
25F
100
AcDbEntity
  8
axe
  6
ByLayer
 62
  256
370
   -1
100
AcDbLine
 10
386
 20
145
 11
381
 21
145
  0
LINE
  5
260
100
AcDbEntity
  8
axe
  6
ByLayer
 62
  256
370
   -1
100
AcDbLine
 10
381
 20
145
 11
381
 21
167.5
  0
LINE
  5
261
100
AcDbEntity
  8
axe
  6
ByLayer
 62
  256
370
   -1
100
AcDbLine
 10
302
 20
167.5
 11
381
 21
167.5
  0
LINE
  5
262
100
AcDbEntity
  8
axe
  6
ByLayer
 62
  256
370
   -1
100
AcDbLine
 10
302
 20
167.5
 11
301
 21
168.5
  0
LINE
  5
263
100
AcDbEntity
  8
axe
  6
ByLayer
 62
  256
370
   -1
100
AcDbLine
 10
301
 20
191.5
 11
302
 21
192.5
  0
ARC
  5
264
100
AcDbEntity
  8
axe
  6
ByLayer
 62
  256
370
   -1
100
AcDbCircle
 10
365
 20
193
 40
2.5
100
AcDbArc
 50
270.0000102477753
 51
348.4630409671846
  0
ARC
  5
265
100
AcDbEntity
  8
axe
  6
ByLayer
 62
  256
370
   -1
100
AcDbCircle
 10
317
 20
193
 40
2.5
100
AcDbArc
 50
191.5369590328148
 51
270.0000164682148
  0
LINE
  5
266
100
AcDbEntity
  8
axe
  6
ByLayer
 62
  256
370
   -1
100
AcDbLine
 10
386
 20
185
 11
356
 21
185
  0
LINE
  5
267
100
AcDbEntity
  8
axe
  6
ByLayer
 62
  256
370
   -1
100
AcDbLine
 10
386
 20
175
 11
356
 21
175
  0
LINE
  5
268
100
AcDbEntity
  8
axe
  6
ByLayer
 62
  256
370
   -1
100
AcDbLine
 10
331
 20
176
 11
331
 21
184
  0
LINE
  5
269
100
AcDbEntity
  8
axe
  6
ByLayer
 62
  256
370
   -1
100
AcDbLine
 10
356
 20
175
 11
354.2679491924312
 21
176
  0
LINE
  5
26A
100
AcDbEntity
  8
axe
  6
ByLayer
 62
  256
370
   -1
100
AcDbLine
 10
356
 20
185
 11
354.2679491924312
 21
184
  0
LINE
  5
26B
100
AcDbEntity
  8
axe
  6
ByLayer
 62
  256
370
   -1
100
AcDbLine
 10
331
 20
176
 11
328.6905989232414
 21
180
  0
LINE
  5
26C
100
AcDbEntity
  8
axe
  6
ByLayer
 62
  256
370
   -1
100
AcDbLine
 10
331
 20
184
 11
328.6905989232414
 21
180
  0
LINE
  5
26D
100
AcDbEntity
  8
axe
  6
ByLayer
 62
  256
370
   -1
100
AcDbLine
 10
342.25
 20
184
 11
342.25
 21
190.5
  0
LINE
  5
26E
100
AcDbEntity
  8
axe
  6
ByLayer
 62
  256
370
   -1
100
AcDbLine
 10
339.75
 20
184
 11
339.75
 21
190.5
  0
LINE
  5
26F
100
AcDbEntity
  8
axe
  6
ByLayer
 62
  256
370
   -1
100
AcDbLine
 10
386
 20
176
 11
386
 21
184
  0
LINE
  5
270
100
AcDbEntity
  8
axe
  6
ByLayer
 62
  256
370
   -1
100
AcDbLine
 10
386
 20
201.4
 11
386
 21
208.6
  0
LINE
  5
271
100
AcDbEntity
  8
axe
  6
ByLayer
 62
  256
370
   -1
100
AcDbLine
 10
386
 20
208.6
 11
386
 21
215
  0
LINE
  5
272
100
AcDbEntity
  8
axe
  6
ByLayer
 62
  256
370
   -1
100
AcDbLine
 10
381
 20
208.6
 11
381
 21
215
  0
LINE
  5
273
100
AcDbEntity
  8
axe
  6
ByLayer
 62
  256
370
   -1
100
AcDbLine
 10
381
 20
192.5
 11
381
 21
201.4
  0
LINE
  5
274
100
AcDbEntity
  8
axe
  6
ByLayer
 62
  256
370
   -1
100
AcDbLine
 10
381
 20
201.4
 11
381
 21
208.6
  0
LINE
  5
275
100
AcDbEntity
  8
axe
  6
ByLayer
 62
  256
370
   -1
100
AcDbLine
 10
342.25
 20
190.5
 11
339.75
 21
190.5
  0
LINE
  5
276
100
AcDbEntity
  8
axe
  6
ByLayer
 62
  256
370
   -1
100
AcDbLine
 10
342.25
 20
184
 11
339.75
 21
184
  0
LINE
  5
277
100
AcDbEntity
  8
axe
  6
ByLayer
 62
  256
370
   -1
100
AcDbLine
 10
339.75
 20
184
 11
331
 21
184
  0
LINE
  5
278
100
AcDbEntity
  8
axe
  6
ByLayer
 62
  256
370
   -1
100
AcDbLine
 10
386
 20
176
 11
381
 21
176
  0
LINE
  5
279
100
AcDbEntity
  8
axe
  6
ByLayer
 62
  256
370
   -1
100
AcDbLine
 10
381
 20
176
 11
331
 21
176
  0
LINE
  5
27A
100
AcDbEntity
  8
axe
  6
ByLayer
 62
  256
370
   -1
100
AcDbLine
 10
301
 20
168.5
 11
301
 21
191.5
  0
LINE
  5
27B
100
AcDbEntity
  8
axe
  6
ByLayer
 62
  256
370
   -1
100
AcDbLine
 10
356
 20
175
 11
356
 21
185
  0
LINE
  5
27C
100
AcDbEntity
  8
axe
  6
ByLayer
 62
  256
370
   -1
100
AcDbLine
 10
302
 20
192.5
 11
314.5505102572166
 21
192.5
  0
LINE
  5
27D
100
AcDbEntity
  8
axe
  6
ByLayer
 62
  256
370
   -1
100
AcDbLine
 10
339.75
 20
190.5
 11
317.0000007185614
 21
190.5000000000001
  0
LINE
  5
27E
100
AcDbEntity
  8
axe
  6
ByLayer
 62
  256
370
   -1
100
AcDbLine
 10
314.5505102572166
 20
192.5
 11
367.449489742783
 21
192.5
  0
LINE
  5
27F
100
AcDbEntity
  8
axe
  6
ByLayer
 62
  256
370
   -1
100
AcDbLine
 10
367.449489742783
 20
192.5
 11
381
 21
192.5
  0
LINE
  5
280
100
AcDbEntity
  8
axe
  6
ByLayer
 62
  256
370
   -1
100
AcDbLine
 10
342.25
 20
190.5
 11
365.0000004471435
 21
190.5
  0
LINE
  5
281
100
AcDbEntity
  8
axe
  6
ByLayer
 62
  256
370
   -1
100
AcDbLine
 10
386
 20
184
 11
342.25
 21
184
  0
LINE
  5
282
100
AcDbEntity
  8
axe
  6
ByLayer
 62
  256
370
   -1
100
AcDbLine
 10
386
 20
184
 11
386
 21
201.4
  0
LINE
  5
283
100
AcDbEntity
  8
axe
  6
ByLayer
 62
  256
370
   -1
100
AcDbLine
 10
386
 20
161.8494453537847
 11
381
 21
161.8494453537847
  0
LINE
  5
284
100
AcDbEntity
  8
axe
  6
ByLayer
 62
  256
370
   -1
100
AcDbLine
 10
386
 20
154.6494453537847
 11
381
 21
154.6494453537847
  0
ENDSEC
  0
SECTION
  2
OBJECTS
  0
DICTIONARY
  5
C
330
0
100
AcDbDictionary
281
    1
  3
ACAD_GROUP
350
D
  0
DICTIONARY
  5
D
330
C
100
AcDbDictionary
281
    1
  0
PLOTSETTINGS
  5
285
100
AcDbPlotSettings
  6
1x1
 40
0
 41
0
 42
0
 43
0
  0
ENDSEC
  0
EOF
