<?xml version="1.0"?>
<svg xmlns="http://www.w3.org/2000/svg" xmlns:lc="https://librecad.org" xmlns:xlink="http://www.w3.org/1999/xlink" width="386mm" height="529.01686446mm" viewBox="0 0 386 529.01686446">
    <g lc:layername="0" lc:is_locked="false" lc:is_construction="false" fill="none" stroke="black" stroke-width="1">
        <g lc:blockname="hovairGaletTriangle">
            <g lc:layername="0" lc:is_locked="false" lc:is_construction="false" fill="none" stroke="black" stroke-width="1"/>
            <g lc:layername="axe" lc:is_locked="false" lc:is_construction="false" fill="none" stroke="black" stroke-width="1"/>
            <g lc:layername="filet" lc:is_locked="false" lc:is_construction="false" fill="none" stroke="black" stroke-width="1">
                <circle cx="156.03659109" cy="-138.14112116" r="2.5"/>
                <circle cx="61.78611296" cy="-138.7123716" r="2.5"/>
                <circle cx="50.3253143" cy="-251.26630982" r="2.5"/>
                <line x1="366" y1="-248.26630982" x2="381" y2="-248.26630982"/>
                <line x1="366" y1="-254.26630982" x2="381" y2="-254.26630982"/>
                <circle cx="314" cy="-128.01686446" r="0.1"/>
                <circle cx="312" cy="-126.01686446" r="0.1"/>
                <circle cx="312" cy="-180.01686446" r="0.1"/>
                <circle cx="314" cy="-178.01686446" r="0.1"/>
                <line x1="312" y1="-180.01686446" x2="314" y2="-178.01686446"/>
                <line x1="381" y1="-180.01686446" x2="383" y2="-178.01686446"/>
                <circle cx="366" cy="-126.01686446" r="0.1"/>
                <circle cx="364" cy="-128.01686446" r="0.1"/>
                <line x1="366" y1="-126.01686446" x2="364" y2="-128.01686446"/>
                <circle cx="366" cy="-180.01686446" r="0.1"/>
                <circle cx="364" cy="-178.01686446" r="0.1"/>
                <line x1="366" y1="-180.01686446" x2="364" y2="-178.01686446"/>
            </g>
            <g lc:layername="hidden" lc:is_locked="false" lc:is_construction="false" fill="none" stroke="black" stroke-width="1">
                <line x1="300" y1="-260.51686446" x2="312" y2="-260.51686446"/>
                <line x1="300" y1="-285.51686446" x2="312" y2="-285.51686446"/>
                <line x1="366" y1="-285.51686446" x2="381" y2="-285.51686446"/>
                <line x1="366" y1="-260.51686446" x2="381" y2="-260.51686446"/>
                <line x1="366" y1="-118.51686446" x2="381" y2="-118.51686446"/>
                <line x1="366" y1="-143.51686446" x2="381" y2="-143.51686446"/>
                <line x1="300" y1="-143.51686446" x2="312" y2="-143.51686446"/>
                <line x1="300" y1="-118.51686446" x2="312" y2="-118.51686446"/>
            </g>
            <g lc:layername="structural" lc:is_locked="false" lc:is_construction="false" fill="none" stroke="black" stroke-width="1">
                <circle cx="180" cy="-131.01686446" r="12.5"/>
                <circle cx="38" cy="-131.01686446" r="12.5"/>
                <circle cx="38" cy="-273.01686446" r="12.5"/>
                <circle cx="106" cy="-153.01686446" r="25"/>
                <line x1="180" y1="-93.01686446" x2="38" y2="-93.01686446"/>
                <path d="M180,-93.01686446 A38,38 0 0,0 206.87005707,-157.88692276 "/>
                <line x1="206.87005707" y1="-157.88692276" x2="206.87005769" y2="-157.88692215"/>
                <line x1="0" y1="-273.01686446" x2="0" y2="-131.01686489"/>
                <line x1="0" y1="-131.01686489" x2="0" y2="-131.01686446"/>
                <path d="M64.87005826,-299.88692158 A38,38 0 0,0 0,-273.01686446 "/>
                <line x1="64.87005769" y1="-299.88692215" x2="64.87005826" y2="-299.88692158"/>
                <line x1="64.87005826" y1="-299.88692158" x2="206.87005707" y2="-157.88692276"/>
                <path d="M0,-131.01686489 A38,38 0 0,0 38.00000043,-93.01686446 "/>
                <circle cx="61.78611296" cy="-138.7123716" r="3"/>
                <circle cx="156.03659109" cy="-138.14112116" r="3"/>
                <circle cx="50.3253143" cy="-251.26630982" r="3"/>
                <line x1="300" y1="-93.01686446" x2="300" y2="-311.01686446"/>
                <line x1="300" y1="-93.01686446" x2="312" y2="-93.01686446"/>
                <line x1="312" y1="-311.01686446" x2="300" y2="-311.01686446"/>
                <line x1="381" y1="-93.01686446" x2="381" y2="-311.01686446"/>
                <line x1="381" y1="-311.01686446" x2="366" y2="-311.01686446"/>
                <line x1="366" y1="-93.01686446" x2="381" y2="-93.01686446"/>
                <line x1="381" y1="-178.01686446" x2="384" y2="-178.01686446"/>
                <line x1="384" y1="-178.01686446" x2="386" y2="-176.01686446"/>
                <line x1="381" y1="-128.01686446" x2="384" y2="-128.01686446"/>
                <line x1="386" y1="-130.01686446" x2="386" y2="-176.01686446"/>
                <line x1="384" y1="-128.01686446" x2="386" y2="-130.01686446"/>
                <line x1="366" y1="-248.76630982" x2="381" y2="-248.76630982"/>
                <line x1="366" y1="-253.76630982" x2="381" y2="-253.76630982"/>
                <line x1="312" y1="-93.01686446" x2="312" y2="-126.01686446"/>
                <line x1="312" y1="-128.01686446" x2="314" y2="-128.01686446"/>
                <line x1="312" y1="-126.01686446" x2="312" y2="-128.01686446"/>
                <line x1="312" y1="-126.01686446" x2="314" y2="-128.01686446"/>
                <line x1="381" y1="-126.01686446" x2="383" y2="-128.01686446"/>
                <line x1="312" y1="-180.01686446" x2="312" y2="-311.01686446"/>
                <line x1="312" y1="-128.01686446" x2="312" y2="-178.01686446"/>
                <line x1="312" y1="-178.01686446" x2="312" y2="-180.01686446"/>
                <line x1="312" y1="-178.01686446" x2="314" y2="-178.01686446"/>
                <line x1="366" y1="-93.01686446" x2="366" y2="-126.01686446"/>
                <line x1="366" y1="-126.01686446" x2="366" y2="-128.01686446"/>
                <line x1="314" y1="-128.01686446" x2="364" y2="-128.01686446"/>
                <line x1="364" y1="-128.01686446" x2="366" y2="-128.01686446"/>
                <line x1="314" y1="-178.01686446" x2="364" y2="-178.01686446"/>
                <line x1="364" y1="-178.01686446" x2="366" y2="-178.01686446"/>
                <line x1="366" y1="-128.01686446" x2="366" y2="-178.01686446"/>
                <line x1="366" y1="-178.01686446" x2="366" y2="-180.01686446"/>
                <line x1="366" y1="-180.01686446" x2="366" y2="-311.01686446"/>
            </g>
        </g>
    </g>
    <g lc:layername="axe" lc:is_locked="false" lc:is_construction="false" fill="none" stroke="black" stroke-width="1">
        <line x1="386" y1="73" x2="386" y2="42"/>
        <line x1="386" y1="3" x2="381" y2="3"/>
        <line x1="386" y1="73" x2="381" y2="73"/>
        <line x1="381" y1="73" x2="381" y2="50.5"/>
        <line x1="302" y1="50.5" x2="381" y2="50.5"/>
        <line x1="302" y1="50.5" x2="301" y2="49.5"/>
        <line x1="301" y1="26.5" x2="302" y2="25.5"/>
        <path d="M365.00000045,27.5 A2.5,2.5 0 0,0 367.44948974,25.5 "/>
        <path d="M314.55051026,25.5 A2.5,2.5 0 0,0 317.00000072,27.5 "/>
        <line x1="386" y1="33" x2="356" y2="33"/>
        <line x1="386" y1="43" x2="356" y2="43"/>
        <line x1="331" y1="42" x2="331" y2="34"/>
        <line x1="356" y1="43" x2="354.26794919" y2="42"/>
        <line x1="356" y1="33" x2="354.26794919" y2="34"/>
        <line x1="331" y1="42" x2="328.69059892" y2="38"/>
        <line x1="331" y1="34" x2="328.69059892" y2="38"/>
        <line x1="342.25" y1="34" x2="342.25" y2="27.5"/>
        <line x1="339.75" y1="34" x2="339.75" y2="27.5"/>
        <line x1="386" y1="42" x2="386" y2="34"/>
        <line x1="386" y1="16.6" x2="386" y2="9.4"/>
        <line x1="386" y1="9.4" x2="386" y2="3"/>
        <line x1="381" y1="9.4" x2="381" y2="3"/>
        <line x1="381" y1="25.5" x2="381" y2="16.6"/>
        <line x1="381" y1="16.6" x2="381" y2="9.4"/>
        <line x1="342.25" y1="27.5" x2="339.75" y2="27.5"/>
        <line x1="342.25" y1="34" x2="339.75" y2="34"/>
        <line x1="339.75" y1="34" x2="331" y2="34"/>
        <line x1="386" y1="42" x2="381" y2="42"/>
        <line x1="381" y1="42" x2="331" y2="42"/>
        <line x1="301" y1="49.5" x2="301" y2="26.5"/>
        <line x1="356" y1="43" x2="356" y2="33"/>
        <line x1="302" y1="25.5" x2="314.55051026" y2="25.5"/>
        <line x1="339.75" y1="27.5" x2="317.00000072" y2="27.5"/>
        <line x1="314.55051026" y1="25.5" x2="367.44948974" y2="25.5"/>
        <line x1="367.44948974" y1="25.5" x2="381" y2="25.5"/>
        <line x1="342.25" y1="27.5" x2="365.00000045" y2="27.5"/>
        <line x1="386" y1="34" x2="342.25" y2="34"/>
        <line x1="386" y1="34" x2="386" y2="16.6"/>
        <line x1="386" y1="56.15055465" x2="381" y2="56.15055465"/>
        <line x1="386" y1="63.35055465" x2="381" y2="63.35055465"/>
    </g>
    <g lc:layername="filet" lc:is_locked="false" lc:is_construction="false" fill="none" stroke="black" stroke-width="1"/>
    <g lc:layername="hidden" lc:is_locked="false" lc:is_construction="false" fill="none" stroke="black" stroke-width="1">
        <path d="M208.04093933,494.01686446 A4,4 0 1,0 208.04093933,494.01686446 "/>
        <path d="M204.04093933,489.01686446 A5,5 0 1,0 209.04093933,494.01686446 "/>
        <line x1="208.88216851" y1="495.26686446" x2="207.84061037" y2="495.26686446"/>
        <line x1="208.88216851" y1="492.76686446" x2="207.84061037" y2="492.76686446"/>
        <line x1="214.54093933" y1="492.76686446" x2="214.87587582" y2="492.76686446"/>
        <line x1="214.54093933" y1="495.26686446" x2="214.87587582" y2="495.26686446"/>
        <path d="M216.3101701,491.62605365 A2.5,2.5 0 0,0 216.3101701,496.40767527 "/>
        <line x1="208.88216851" y1="495.26686446" x2="214.54093933" y2="495.26686446"/>
        <line x1="208.88216851" y1="492.76686446" x2="214.54093933" y2="492.76686446"/>
    </g>
    <g lc:layername="structural" lc:is_locked="false" lc:is_construction="false" fill="none" stroke="black" stroke-width="1">
        <circle cx="204.04093933" cy="494.01686446" r="35"/>
        <circle cx="204.04093933" cy="494.01686446" r="12.5"/>
        <circle cx="204.04093933" cy="494.01686446" r="11.5"/>
        <circle cx="229.04093933" cy="494.01686446" r="3.6"/>
        <line x1="214.54093933" y1="247.76686446" x2="214.87587582" y2="247.76686446"/>
        <line x1="214.54093933" y1="250.26686446" x2="214.87587582" y2="250.26686446"/>
        <line x1="208.88216851" y1="250.26686446" x2="214.54093933" y2="250.26686446"/>
        <line x1="208.88216851" y1="247.76686446" x2="214.54093933" y2="247.76686446"/>
        <path d="M208.88216851,250.26686446 A5,5 0 0,0 208.88216851,247.76686446 "/>
        <path d="M208.88216851,247.76686446 A5,5 0 1,0 208.88216851,250.26686446 "/>
        <path d="M216.3101701,246.62605365 A2.5,2.5 0 0,0 214.87587582,247.76686446 "/>
        <path d="M214.87587582,247.76686446 A2.5,2.5 0 0,0 214.87587582,250.26686446 "/>
        <path d="M214.87587582,250.26686446 A2.5,2.5 0 0,0 216.3101701,251.40767527 "/>
        <path d="M216.3101701,251.40767527 A12.5,12.5 0 0,0 216.3101701,246.62605365 "/>
        <path d="M216.3101701,246.62605365 A12.5,12.5 0 1,0 216.3101701,251.40767527 "/>
        <circle cx="386" cy="34" r="0.1"/>
    </g>
</svg>
